<svg xmlns="http://www.w3.org/2000/svg" width="1663.716" height="352.154" viewBox="0 0 1663.716 352.154">
  <path id="Path_102" data-name="Path 102" d="M1429.98,1045.77c.827,1.9.873,1.877,1.646,3.795,3.183,7.906,6.288,15.842,9.528,23.724a6.945,6.945,0,0,1-.444,6.79c-3.551,5.841-6.5,11.962-10.73,17.493-5.67,7.421-10.181,15.728-15.189,23.653h10.81q7.807-11.769,15.609-23.545c1.559-2.358,3.058-4.755,4.784-7.447,2.3,2.123,2.878,4.758,3.592,7.225,2.287,7.9,4.437,15.842,6.641,23.766h16.213c-1.639-5.406-2.8-11.016-5.019-16.175-3.836-8.933-8.542-17.49-12.468-26.388-3.14-7.119-5.722-14.487-8.446-21.783-3.2-8.559-6.278-17.161-9.413-25.742-3.8-10.407-7.675-20.788-11.374-31.231-1.144-3.229-1.823-6.624-2.9-10.634,3.117.711,5.93,1.227,8.666,2.007,4.6,1.309,9.084,3.053,13.727,4.14,12.087,2.826,24.238,5.377,36.355,8.077,4.027.9,4.158.945,4.247,4.99.143,6.657,1.969,12.99,3.316,19.431,2.051,9.8,3.894,19.652,5.744,29.5,1.711,9.105,3.388,18.218,4.924,27.355a83.848,83.848,0,0,1,1.169,11.128,79.015,79.015,0,0,0,4.8,25.326h10.808c-2.536-9.255-4.646-18.575-5.214-28.211-.131-2.251-1.43-4.405-1.848-6.668-1.225-6.632-2.294-13.291-3.4-19.945-1.686-10.2-3.339-20.4-5.028-30.6-.926-5.591-1.917-11.173-2.835-16.767-.157-.961-.1-1.956-.186-3.766,2.493,2.345,4.457,4.108,6.325,5.966,3.182,3.163,6.374,6.32,9.43,9.6,2.429,2.608,4.526,5.533,7.021,8.072,2.931,2.985,6.2,5.631,9.2,8.562,2.666,2.612,5.132,5.429,7.714,8.129,4.863,5.083,9.763,10.131,14.614,15.226,2.477,2.6,4.776,5.376,7.338,7.884a298.529,298.529,0,0,1,23.028,25.753c2.9,3.591,6.343,6.687,8.542,10.92,1.184,2.28,3.6,3.917,5.466,5.844h17.113c-1.422-1.892-2.751-3.865-4.283-5.664-7.671-9.014-15.21-18.148-23.16-26.908-5.425-5.979-11.47-11.391-17.191-17.1-1.794-1.791-22.449-21.668-26.485-29.176-.3-7.752-2.263-19.973-3.043-27.724-.6-5.945-.4-11.966-.723-17.943-.343-6.281-.928-12.548-1.338-18.825q-.336-5.157-.446-10.326c-.192-8.541-.372-17.083-.469-25.625-.075-6.684-.015-13.369-.015-21.162,4.213,2.765,7.547,4.935,10.862,7.134,6.114,4.06,12.11,8.315,18.366,12.142a13.031,13.031,0,0,1,6.555,9.52c1.836,9.839,4.413,19.536,6.409,29.35,2.747,13.509,6.787,26.653,10.689,39.848a100.922,100.922,0,0,1,3.166,13.552c1.178,7.842,2.429,15.612,4.822,23.223,2.5,7.953,4.556,16.059,6.484,24.175,1.91,8.037,5.176,15.595,7.71,23.408.093.284.294.534.368.819q2.223,8.643,4.425,17.287h14.412c-3.554-9.537-7-19.117-10.706-28.594-2.037-5.2-7.968-24.689-9.386-28.4-3.5-9.139-4.973-18.8-6.618-28.4-.681-3.963-5.377-16.459-5.458-18.288-.085-1.914-5.324-19.99-7.155-27.2-1.692-6.67-3.122-13.413-4.442-20.168-.656-3.357-.394-6.929-1.309-10.192-.847-3.018-2.71-5.751-3.6-9.241q2.339,1.465,4.677,2.931c6.066,3.819,12.091,7.7,18.213,11.428,2.155,1.311,4.595,2.139,6.81,3.359,3.524,1.941,6.981,4,10.44,6.056s7.343,1.735,11.191,3.931c4.993,2.849,7.755,4.967,10.852,4.967-.572-5.646-1.419-11.281-1.656-16.941-6.235-2.55-20.034-7.367-27.226-10.646-4.57-2.084-8.4-5.727-12.772-8.325-7.562-4.5-15.052-9.024-23.51-11.979-6.275-2.191-12.009-6-17.869-9.287-6.4-3.595-12.708-7.353-18.967-11.185-3.058-1.872-5.91-4.076-8.866-6.117-2.194-1.515-21.795-15.3-27.708-19.4-4.762-3.3-9.844-6.145-15.542-9.659,2.921.868,5.11,1.559,7.321,2.171,13.834,3.822,27.126,9.34,41.319,12.149,11.406,2.26,22.513,6.038,33.752,9.152,6.026,1.669,12.044,3.365,18.07,5.032a6.5,6.5,0,0,0,2.2.411c8.879-.8,16.6,3.375,24.715,5.777a29.148,29.148,0,0,0,8.542,1.714c4.215.012,8.452,1.683,12.621,2.852,2.039.572,1.7-8.742,1.6-3.8-1.622-.891-2.867-1.683-4.2-2.286-11.11-5.028-22.773-8.345-34.594-11.2-7.282-1.761-14.54-3.638-21.74-5.708-8.057-2.316-15.964-5.173-24.065-7.309-7.086-1.869-14.331-3.162-21.538-4.538-12.6-2.406-24.181-7.956-36.358-11.655-3.861-1.173-7.721-2.345-11.615-3.4-7.941-2.144-16.048-3.789-23.791-6.485-3.487-1.215-5.7-.4-8.2,1.352a24.927,24.927,0,0,1-3.61,2.621c-9.954,4.5-19.953,8.905-29.946,13.323-.955.421-1.979.688-2.948,1.083-4.291,1.753-8.612,3.439-12.853,5.31-10.4,4.593-20.745,9.333-31.165,13.889-3.417,1.494-7.06,2.467-10.491,3.932-3.842,1.642-7.55,3.6-11.338,5.367q-3.662,1.712-7.387,3.287c-4.674,1.981-9.374,3.9-14.045,5.881-2.086.885-3.438.148-4.416-1.733-.968-1.863-1.947-3.72-2.983-5.545q-11.646-20.541-23.333-41.06c-1.706-2.985-3.537-5.907-5.461-8.756a2.705,2.705,0,0,0-2.214-1.021c-.493.093-8.928-3.026-10.37-4.086-10.15-7.468-20.331-14.873-31.367-21.036a92.83,92.83,0,0,1-9.253-6.374c-5.8-4.239-11.46-8.667-17.324-12.813-8.68-6.136-17.508-12.062-26.231-18.14-5.28-3.679-10.291-7.781-15.757-11.15-8.547-5.264-17.4-10.034-26.07-15.093a8.109,8.109,0,0,0-6.841-.977c-5.162,1.538-10.367,2.943-15.593,4.25-7.706,1.926-15.484,3.575-23.161,5.606-7.5,1.984-14.884,4.383-22.362,6.446-6.48,1.788-13.015,3.383-19.533,5.026-8.5,2.144-17.273,3.258-25.19,7.468-2.338,1.244-5.277,1.347-7.627,2.573-13.649,7.111-27.775,13.185-40.571,22.082-13.422,9.331-26.666,18.853-39.586,28.851-6.036,4.671-11.931,9.557-18.227,13.851-8.983,6.128-18.465,11.533-27.39,17.74-10.2,7.091-19.987,14.771-30.033,22.083a25.587,25.587,0,0,1-7.016,3.89c-8.158,2.6-14.917,7.689-21.929,12.207a221.632,221.632,0,0,0-19.245,14.534c-2.672,2.168-5.142,2.388-8.254,1.466-27.009-8.007-53.952-16.253-80.143-26.655a170.676,170.676,0,0,0-38.476-10.523c-4.407-.645-8.708-2.19-12.978-3.569-4.846-1.566-9.583-3.467-14.4-5.12-11.531-3.951-23.315-7.253-34.049-13.808-1.137,1-2.135,1.865-3.11,2.751-6.656,6.05-13.224,12.2-19.985,18.134-7.765,6.815-15.686,13.454-23.568,20.136q-8.2,6.954-16.483,13.816c-6.1,5.066-12.313,10-18.329,15.161-4.761,4.083-9.3,8.425-14.257,12.938a23.163,23.163,0,0,1-3.215-1.982c-8.838-7.512-18.867-13.266-28.707-19.257-9.1-5.541-18.152-11.083-25.991-18.371-4.5-4.184-8.9-8.473-13.437-12.613-2.989-2.725-6.336-5.077-9.192-7.927-10.883-10.86-23.4-19.726-35.7-28.771a259.71,259.71,0,0,0-29.7-18.54c-7.373-4.016-14.708-7.855-21.346-13.1-4.067-3.214-8.852-5.568-13.465-8.025-3.954-2.106-8.08-3.911-12.223-5.623a5.758,5.758,0,0,0-3.789-.011c-5.762,2.04-11.493,4.18-17.164,6.464a142.81,142.81,0,0,0-20.946,10.147,259.832,259.832,0,0,1-25.547,14.1c-10.347,4.776-20.505,9.844-30.39,15.488-2.721,1.553-5.477,3.049-8.138,4.7-7.514,4.662-14.9,9.536-22.5,14.055-8.876,5.281-18.14,9.938-26.829,15.5-6.908,4.424-14.2,8.384-20.16,14.225A157.233,157.233,0,0,1,166.245,934.7c-10.022,7.84-20.479,15.071-32.008,20.635-3.906,1.886-7.62,4.175-11.386,6.34-.636.366-57.131,64.919-59.453,68.046-39.579,53.281-81.324,88.417-82.635,89.231,0,3.6,18.363.247,18.363,3.851,8.844-4.035,135.488-154.469,144.189-158.792,3.293-1.637,6.067-4.34,9.021-6.63,7.338-5.689,14.547-11.553,22.053-17.013,1.337-.972,5.873-5.086,7.871-5.225-1.3,3.488-3.664,11.016-4.8,13.7-2.094,4.944-4.421,9.79-6.445,14.762-1.239,3.041-2.011,6.268-3.145,9.355-2.73,7.439-5.583,14.832-8.309,22.272-.714,1.95-1.1,4.019-1.7,6.012-2.924,9.59-5.841,19.152-10.364,28.193-2.992,5.979-5.873,12.113-6.822,18.9a10.152,10.152,0,0,1-1.395,3.771c-2.916,4.765-29.777,64.173-31.223,67.427,0,3.9,14.783,1.692,17.785,1.692a89.1,89.1,0,0,1,5.518-21.7c1.209-3.185,2.915-6.188,4.035-9.4.708-2.034.417-4.417,1.143-6.441,4.81-13.379,9.549-26.791,14.791-40,2.269-5.719,3.59-11.67,5.571-17.441,2.235-6.519,4.215-13.132,8.257-18.856a3.355,3.355,0,0,0,.543-1.2,62.372,62.372,0,0,1,1.617-7.775c1.958-5.625,3.993-11.246,6.421-16.678,4.36-9.749,7.321-19.947,10.224-30.167a96.3,96.3,0,0,1,8.957-21.949,5.882,5.882,0,0,1,1.735-1.941c7.741-5.124,15.468-10.27,23.31-15.236,2.733-1.732,5.766-2.988,9.026-4.646.816,4.538-.339,8.263-1,12.023-.925,5.3-1.959,10.584-2.773,15.9-1.132,7.392-1.958,14.83-3.178,22.205-1.639,9.9-2.734,19.86-3.464,29.865-.51,7.009-.984,14.02-1.665,21.012a82.94,82.94,0,0,1-1.605,8.368q-2.406,11.847-4.831,23.69c-.6,2.922-1.265,5.832-1.8,8.766-2.152,11.751-4.572,23.466-6.273,35.282-1.015,7.057-.627,14.309-1.379,21.419-.314,2.974-1.7,5.927-3.056,8.667-1.109,2.251-2.887,4.172-4.369,6.238H207.8c5.9-10.079,11.772-20.177,17.721-30.229,2.823-4.77,5.718-9.5,8.747-14.144.931-1.424,2.416-2.486,3.858-3.923.914,3.948,1.564,7.381,2.512,10.73,2.689,9.494,5.538,18.943,8.238,28.434.856,3.006,1.448,6.085,2.161,9.131h10.808c-.539-2.318-.96-4.671-1.637-6.948q-6.221-20.879-12.543-41.726c-.815-2.7-1.817-5.339-2.519-8.062a4.187,4.187,0,0,1,.374-2.96c5.573-8.85,11.249-17.635,17.22-26.942,1.376,1.651,2.562,2.933,3.587,4.331,5.17,7.047,8.745,14.916,11.846,23.035,1.227,3.212,2.521,6.4,3.946,9.532a21.467,21.467,0,0,1,2.1,7.208c.244,2.748,1.578,5.414,2.525,8.084q5.338,15.029,10.761,30.029a43.2,43.2,0,0,0,2.171,4.417H313.19c-2.237-4.721-4.483-9.439-6.7-14.173a3.276,3.276,0,0,1-.432-1.726c.789-4.881-2.22-8.548-3.961-12.613-2.652-6.188-5.295-12.378-8.04-18.523q-4.852-10.858-9.888-21.635-4.965-10.561-10.178-21.006c-1.324-2.669-2.916-5.206-4.671-8.306,8.167-11.15,14.367-24.01,23.507-34.843,6.453,7.993,12.96,15.56,18.906,23.547,6.769,9.088,14.4,17.579,19.376,27.958,4.842,10.1,10.053,20.028,15.078,30.042q5.823,11.6,11.577,23.244c2.031,4.121,3.954,8.3,6.055,12.715l-20.211,13.669a11.121,11.121,0,0,0,8.264-.494,5.055,5.055,0,0,1,3.807-.334,6.255,6.255,0,0,0,3.911-.194c4.736-1.843,9.424-3.742,13.463-7.05,3.922-3.212,8.461-5.6,12.033-9.346,1.379-1.447,3.632-2.039,5.435-3.105,5.145-3.046,10.317-6.05,15.381-9.227,5.834-3.659,11.493-7.6,17.354-11.211,7.257-4.475,14.733-8.6,21.937-13.163a83.837,83.837,0,0,0,9.539-7.491c6.024-5.174,11.9-10.518,17.925-15.694,1.666-1.433,3.632-2.521,6.381-4.4a28.38,28.38,0,0,1-1.022,3.79q-7.7,16.439-15.477,32.844c-1.72,3.641-3.594,7.219-5.138,10.933-3.1,7.448-6.16,14.919-8.94,22.489-1.2,3.276-2.77,6.642-1.927,10.784,3.069.157,6.026.285,8.979.469,2.174.134,3.264-.943,3.833-2.963,1.418-5.04,2.8-10.1,4.457-15.059,2.234-6.673,4.437-13.379,7.152-19.861,5.44-12.993,11.184-25.86,16.875-38.746,1.994-4.514,4.129-8.971,6.363-13.372a10.869,10.869,0,0,1,3.008-3.8,190.38,190.38,0,0,0,23.942-20.364c3.85-3.961,8.029-7.6,12.073-11.373.432-.4,26.554-23.9,33.125-30.863.612-.65,1.056-1.456,1.646-2.13.555-.63,1.2-1.179,1.807-1.765l.868.4a53.966,53.966,0,0,1-1.822,5.638c-3.2,7.224-6.105,14.576-9.348,21.787-2.408,5.353-5.438,10.59-6.534,16.574-.443,2.425-2.162,4.585-3.023,6.967-3.037,8.409-6.087,16.819-8.876,25.312-2.51,7.645-4.75,15.38-6.984,23.112-2.481,8.588-4.849,17.209-7.2,25.835-.627,2.306-.836,4.732-1.518,7.018-2.081,6.983-4.427,13.887-6.4,20.9-.8,2.829-.891,5.856-1.3,8.794h11.71c.633-2.905,1.12-5.852,1.927-8.707,2.89-10.222,5.881-20.415,8.85-30.615.41-1.408.916-2.791,1.521-4.625a18.7,18.7,0,0,1,6.67,6.792c6.548,11.78,15.34,21.673,25.259,30.682,2.043,1.857,3.555,4.3,5.313,6.473h14.411c-.958-1.5-1.686-3.226-2.913-4.454-12.5-12.5-23.952-25.938-35.516-39.276-2.94-3.389-5.611-7.012-8.412-10.52a6.936,6.936,0,0,1-1.486-6.285,405.012,405.012,0,0,1,12.365-40.857,17.646,17.646,0,0,1,1.36-2.391,23.7,23.7,0,0,1,3.3,2.237q10.192,9.831,20.276,19.773c3.089,3.044,5.95,6.323,9.116,9.281,6.192,5.786,10.646,12.917,15.758,19.556a116.06,116.06,0,0,0,13.117,14.119,13.956,13.956,0,0,1,4.421,8.937c.487,3.557,1.1,7.111,1.3,10.686.356,6.391.443,12.795.642,19.193h12.61c-.182-.568-.591-1.17-.511-1.7,1.126-7.546-1.122-14.869-1.492-22.318-.484-9.7-2.728-19.247-2.516-29.073.105-4.862-1.114-9.786-2.033-14.624-.586-3.093.24-5.251,2.271-7.689,5.348-6.421,11.809-11.417,18.648-16.039a17.262,17.262,0,0,0,2.052-1.744c9.958-9.284,20.029-18.453,29.817-27.915,5.139-4.968,9.78-10.453,15.09-16.184,1.646,5.016,3.069,9.8,4.157,14.693,2.533,11.386,5.2,22.744,7.509,34.176,1.21,6,1.856,12.116,2.548,18.2a6.066,6.066,0,0,1-1.117,3.7c-6.543,9.676-13.07,19.369-19.843,28.883-4.511,6.333-9.273,12.5-14.19,18.528-4.35,5.332-9.091,10.343-13.605,15.543a37.322,37.322,0,0,0-2.464,3.566H680.69c1.414-1.917,2.779-3.874,4.254-5.744,3.89-4.935,7.887-9.786,11.733-14.754q8.526-11.014,16.872-22.164c1.767-2.374,3.165-5.025,5.13-8.193a41.359,41.359,0,0,1,1.1,4.563c1.186,10.314,4.913,19.991,7.485,29.954,1.416,5.492,3.169,10.9,4.77,16.338h15.313q-1.382-6.12-2.765-12.241c-4.086-18.136-8.077-36.292-12.3-54.4-1.839-7.884-4.323-15.618-6.212-23.491-3.323-13.851-6.471-27.746-9.589-41.644-2.9-12.911-7.311-25.338-11.708-37.777-1.2-3.391-2.5-6.751-3.56-10.182-.83-2.686-1.366-5.461-2.293-9.267a45.967,45.967,0,0,1,5.191,2.962c4.822,3.763,9.664,7.515,14.28,11.519,5.5,4.77,12.229,7.424,18.3,11.188a55.162,55.162,0,0,1,5.675,4.32c3.577,2.921,7.192,5.8,10.608,8.908a10.313,10.313,0,0,1,2.879,4.324,188.063,188.063,0,0,1,5.019,18.165c1.491,7.359,4.094,14.37,5.959,21.593,1.9,7.366,3.02,14.93,4.749,22.344,2.142,9.183,4.636,18.284,6.841,27.453,2.693,11.2,5.148,22.468,7.894,33.659,1.854,7.563,4.031,15.046,6.064,22.564h9.909a35.853,35.853,0,0,0-.61-4.375c-2.583-9.839-5.165-19.681-7.88-29.485-4.44-16.034-7.347-32.415-11.177-48.578-4.071-17.182-6.25-34.825-12.242-51.549a19.792,19.792,0,0,1-.407-2.738c4.462,4.053,8.237,7.517,12.053,10.936,7.562,6.777,15.178,13.494,22.712,20.3,6.415,5.8,12.906,11.527,19.08,17.576,12.265,12.015,24.3,24.267,36.5,36.341,5.632,5.571,11.446,10.956,17.182,16.419,5.838,5.559,11.6,11.206,17.551,16.637,5.022,4.582,10.266,8.919,15.429,13.344,2.043,1.752,4.131,3.447,6.2,5.168H939.2c-10.037-8.06-20.183-15.992-30.071-24.233-5.638-4.7-10.82-9.938-16.272-14.864-9.214-8.327-18.348-16.752-27.783-24.821-4.045-3.458-8.089-6.993-12.9-9.569-1.913-1.022-3-3.6-4.053-4.953,5.043,1.509,11.164,3.058,17.081,5.177,8.589,3.079,17.012,6.618,25.542,9.867,4.053,1.543,8.2,2.826,12.278,4.306,2.246.815,4.442,1.767,6.641,2.707,13.08,5.591,26.237,11.02,39.2,16.869,7.227,3.259,14.121,7.253,21.187,10.869,8.925,4.567,17.881,9.073,26.81,13.631q12.987,6.626,25.935,13.326a11.317,11.317,0,0,1,1.976,1.688h35.13c-5.309-2.722-10.654-5.376-15.915-8.187-5.942-3.176-11.774-6.555-17.714-9.734-10.439-5.585-20.8-11.336-31.429-16.53-6.977-3.409-14.353-6.008-21.586-8.882-5.284-2.1-10.575-4.2-15.952-6.041-8.357-2.864-16.771-5.568-25.195-8.235-10.552-3.34-21.181-6.446-31.695-9.906-6.1-2.01-12.021-4.57-18.062-6.772-2.667-.974-5.469-1.579-8.15-2.522-4.932-1.735-10.088-3.09-14.67-5.515-8.559-4.529-17.629-7.52-26.842-10.178a15.584,15.584,0,0,1-6.691-3.432c-8.734-8.211-17.924-15.943-25.387-25.448-4.07-5.184-8.606-10-12.908-15-.645-.749-1.16-1.611-2.153-3.011a34.912,34.912,0,0,1,5.016.29,127.179,127.179,0,0,1,25.039,8.418c6.65,3,13.785,4.921,20.684,7.382,4.936,1.763,9.868,3.546,14.742,5.47,5.974,2.359,11.676,5.412,18.189,6.293,5.773.78,11.524,1.761,17.241,2.867a67.061,67.061,0,0,1,6.827,2.216c9.017,2.774,18.082,5.4,27.053,8.307,8.522,2.766,16.982,5.739,25.407,8.8a43.221,43.221,0,0,1,8.93,4.2c5.547,3.629,11.811,5.31,18.072,6.575,5.441,1.1,9.622,3.9,13.7,7.184q23.294,18.785,46.522,37.654a29.529,29.529,0,0,1,3.256,3.092c6.192,6.822,13.5,12.258,20.966,17.6,5.437,3.89,10.236,8.672,15.32,13.054h23.418a11.519,11.519,0,0,0-1.779-1.9c-9.107-6.154-48.361-37.142-53.6-41.6.287-1.483.185-2.547.661-3.163,3.276-4.236,5.275-9.336,9.549-12.949,2.44-2.063,4.181-5.054,5.925-7.823,5.766-9.162,12.577-17.5,19.463-25.822,4.939-5.972,9.2-12.514,13.654-18.876,3.923-5.6,7.625-11.35,11.563-16.936,3.623-5.135,7.524-10.073,11.133-15.217,4.294-6.12,8.2-12.52,12.653-18.523,5.6-7.559,11.586-14.835,17.391-22.243,1.837-2.345,4.434-9.975,5.135-10.915,1.244-1.668,2.527-3.307,3.813-4.941q4.422-5.617,8.863-11.217a6.446,6.446,0,0,0,.835-1.045c5.007-10.2,12.816-18.383,19.549-27.346,2.141-2.852,3.74-6.107,5.655-9.134,1.427-2.255,2.965-4.442,4.622-6.911.743.62,1.311.888,1.563,1.334,3.305,5.87,6.54,11.782,9.854,17.646,1.073,1.9,1.888,3.658.719,5.885-.891,1.7-1.289,3.65-2.094,5.4-6.569,14.321-11.113,29.377-16.17,44.247-.771,2.269-1.64,4.506-2.513,6.74-4.413,11.277-9.452,22.353-13.088,33.874-3.456,10.95-7.837,21.682-9.21,33.294-.552,4.663-2.741,9.136-4.205,13.687-2.107,6.548-4.076,13.147-6.391,19.62-3.53,9.864-7.422,19.594-10.933,29.463-2.4,6.76-4.468,13.643-6.595,20.5-1.462,4.714-2.855,9.452-4.12,14.222-.893,3.368-3.285,5.2-6.085,6.815-2.052,1.183-4,2.55-5.994,3.833h17.113c2.455-2.347,4.759-4.878,7.388-7.012,10.66-8.649,21.421-17.174,32.141-25.75a2.265,2.265,0,0,1,1.73-.651q-6.216,16.707-12.435,33.413h12.61c1.784-4.758,3.633-9.494,5.33-14.284,1.292-3.653,2.321-7.4,3.6-11.061,1.082-3.1,2.359-6.139,3.526-9.214.85-2.237,1.6-4.512,2.5-6.729,1.343-3.308,2.994-6.506,4.123-9.882,1.682-5.028,4.857-9.4,5.689-14.865a28.538,28.538,0,0,1,4.152-10.382,137.024,137.024,0,0,0,11.843-24.656c1.627-4.35,3.432-8.635,5.182-12.938,1.244-3.062,2.33-6.072,2.2-9.54-.073-1.978.97-4.033,1.666-6,2.142-6.059,4.422-12.07,6.528-18.142,2.048-5.907,3.819-11.913,5.968-17.781a53.407,53.407,0,0,1,3.749-7.1c2.075-3.772,4.308-7.465,6.217-11.318.99-2,2.216-2.364,4.277-2.1,8.139,1.025,15.424,4.306,22.811,7.663,8.705,3.957,17.157,8.635,26.553,10.965a17.8,17.8,0,0,1,2.551,1.087c.262,3.27-1.076,5.979-2.577,8.518-4.186,7.077-8.429,14.08-11.551,21.757-1.787,4.395-4.779,8.284-6.967,12.534-3.862,7.5-9.438,13.781-14.257,20.6a81.287,81.287,0,0,0-5.51,8.727c-3.645,6.879-7.03,13.9-10.619,20.8-1.793,3.45-3.824,6.777-5.715,10.176-4.874,8.765-10.109,17.354-14.469,26.368-3.317,6.856-8.47,12.267-12.583,18.471-.081.122-.24.194-.313.319q-5.294,9-10.578,18.006h18.015c2.673-5.66,4.624-11.695,8.664-16.648a8.053,8.053,0,0,0,1.128-1.938c5.39-12.685,13.14-24.119,19.337-36.384,3.349-6.629,6.488-13.509,12.259-19.373,1.254,1.257,2.565,2.385,3.653,3.694,5.832,7.021,11.663,14.045,17.389,21.149,6.2,7.685,12.178,15.538,18.445,23.162,3.223,3.92,6.908,7.456,10.3,11.238,4.479,5,8.876,10.063,13.309,15.1h18.015c.49-7.317.952-14.637,1.486-21.952.218-2.989.566-5.971.909-8.95a4.571,4.571,0,0,1,2.837-4.181c3.159-1.324,6.208-2.907,9.319-4.344,3.262-1.506,6.726-2.669,9.784-4.511,7.228-4.352,15.023-7.411,22.713-10.749a71.181,71.181,0,0,0,9.307-5.385c7.471-4.7,14.919-9.447,22.3-14.293M316.054,883.027q3.317-13.969,6.481-27.976c.5-2.2,1.4-3.938,3.627-4.708,8.882-3.061,17.139-7.5,25.681-11.988,5.631,3.388,10.855,6.566,16.123,9.674,1.479.874,2.243,1.948,1.732,3.674a17.818,17.818,0,0,1-1.239,3.793c-5.1,8.972-10.068,18.027-15.5,26.794-3.694,5.957-8.048,11.509-12.156,17.206q-13.516,18.744-27.1,37.437c-3.047,4.173-6.319,8.182-9.943,12.853A27.91,27.91,0,0,1,305,939.277a108.648,108.648,0,0,0,3.931-23.862,43.215,43.215,0,0,1,1-7.109C311.908,899.864,314.05,891.463,316.054,883.027Zm-53.528,79.256c-.732,11.168-4.886,21.555-6.516,32.493-1.277,8.583-3.029,17.1-4.077,25.712-.725,5.963-2.382,11.164-6.211,16-3.769,4.762-6.49,10.344-9.787,15.493q-7.991,12.474-16.144,24.844c-2.132,3.246-4.408,6.4-6.932,10.039a18.533,18.533,0,0,1-.392-2.959c.432-10.773.649-21.532,2.38-32.247,1.718-10.623,2.4-21.412,3.841-32.087,1.141-8.447,2.762-16.829,4.146-25.245,1.653-10.059,3.27-20.122,4.92-30.181,2.327-14.191,4.6-28.391,7.038-42.563,1.042-6.049,2.489-12.029,3.682-18.053a7.407,7.407,0,0,1,3.839-5.148c5.989-3.71,11.753-7.779,17.638-11.658,2.228-1.466,4.547-2.8,7.706-4.727a61.074,61.074,0,0,1,.8,7.131c-.143,8.821.32,17.748-.914,26.426a169.925,169.925,0,0,0-1.59,20.536,15.287,15.287,0,0,1-.172,1.787C264.662,946.01,263.062,954.111,262.526,962.284Zm28.78,3.053a22.319,22.319,0,0,1-3.169,6.349c-6.81,10.539-13.727,21.009-20.576,31.524a15.058,15.058,0,0,1-2.785,3.775c.253-2.394.488-4.79.766-7.179,1.434-12.346,3.1-24.67,4.247-37.042.757-8.154,1.936-16.205,3.34-24.267,1.772-10.178,3.749-20.421,4.195-30.7.432-9.941,2.187-19.594,3.594-29.351a7.753,7.753,0,0,1,4.335-6.235c7.311-4.1,14.431-8.538,21.654-12.793a36.022,36.022,0,0,1,3.859-1.686,7.157,7.157,0,0,1,.288,2.146c-2.483,9.444-2.9,19.188-4.329,28.784-1.161,7.814-3.275,15.482-4.859,23.237-.652,3.185-.963,6.436-1.537,9.639-1.262,7.054-2.484,14.118-3.923,21.137C294.851,950.259,293.2,957.829,291.306,965.337Zm82.2,133.192c-2.287-1.746-2.942-4.622-4.192-7.1-2.29-4.532-4.274-9.227-6.719-13.672-3.241-5.895-6.754-11.643-10.236-17.4q-9.87-16.324-19.854-32.581c-4.08-6.617-8.177-13.231-12.526-19.671-2.84-4.2-6.091-8.133-9.256-12.107-3.644-4.573-7.408-9.049-11.084-13.593a17.548,17.548,0,0,1-1.328-2.206c8.312-13.962,14.885-28.922,27.192-40.286,2.2,3.735,4.27,7.279,6.378,10.8,2.757,4.6,5.621,9.131,8.306,13.77,2.915,5.036,5.692,10.152,8.493,15.253,1.434,2.611,2.632,5.364,4.209,7.883,6.583,10.524,12.117,21.723,20.481,31.108,3.067,3.441,5.385,7.538,8.19,11.225,1.625,2.133,3.516,4.071,5.332,6.055,6.545,7.144,10.929,15.706,15.735,23.984,2.695,4.643,5.219,9.386,7.788,14.026C407.089,1078.6,379.575,1096.891,373.5,1098.529Zm64.1-44.337c-3.333,2.5-6.429,5.316-9.745,7.842-2.483,1.889-5.148,3.539-8.364,5.724-2.017-3.279-3.674-6.047-5.406-8.768-2.727-4.279-5.058-8.913-8.353-12.706-7.219-8.316-12.728-17.786-19.033-26.714-3.285-4.65-6.719-9.2-9.841-13.958-4.349-6.624-8.477-13.395-12.685-20.11-4.292-6.851-8.82-13.573-12.786-20.609-4.48-7.952-8.48-16.175-12.622-24.314-1.741-3.424-3.31-6.935-5.2-10.93.391-.557,1.109-1.663,1.907-2.71,4.454-5.841,9.088-11.553,13.33-17.543,2.316-3.272,3.98-7.007,5.94-10.53,1.427-2.565,2.86-5.126,4.709-8.44,1.824,3.845,3.227,6.743,4.579,9.664,2.823,6.092,5.57,12.218,8.437,18.288,6.583,13.933,13.065,27.917,19.9,41.726,3.317,6.706,7.292,13.092,11.042,19.582,2.161,3.74,4.7,7.277,6.65,11.118,3.362,6.614,7.93,12.282,12.645,17.939,3.536,4.24,6.342,9.084,9.624,13.546,3.9,5.307,8,10.471,11.948,15.743,1.788,2.386,3.429,4.887,5.35,7.643C445.565,1048.535,441.508,1051.262,437.6,1054.192Zm19.724-13.282c-1.549-2.954-2.788-5.82-4.466-8.4-2.6-4-5.481-7.817-8.283-11.684-4.741-6.545-9.542-13.045-14.261-19.6-3.061-4.253-6.044-8.563-9.023-12.876-1.7-2.452-3.45-4.88-4.935-7.46-5.151-8.953-10.186-17.972-15.287-26.954-1.108-1.952-2.2-3.929-3.493-5.756-3.607-5.089-5.611-10.868-7.714-16.661-3.066-8.443-6.484-16.759-9.809-25.106-2.8-7.037-5.817-13.994-8.473-21.085a64.317,64.317,0,0,1-2.353-9.531,5.9,5.9,0,0,1,.053-3.526c2.742-5.435,5.693-10.764,8.849-16.64,1.837,1.569,3.131,2.745,4.5,3.827,3.873,3.061,7.652,6.261,11.7,9.072,4,2.776,6.174,6.659,8.214,10.891,3.114,6.458,6.531,12.777,10.025,19.039,4.811,8.62,10.521,16.738,14.032,26.078.877,2.333,2.59,4.352,3.914,6.517,3.67,6,7.422,11.951,10.977,18.017,3.394,5.788,7.544,11.377,9.618,17.63,2.693,8.116,9.215,13.056,13.62,19.678,2.647,3.981,5.588,7.765,8.371,11.658,3.211,4.492,6.45,8.969,9.564,13.529,1.6,2.335,2.948,4.836,4.857,8.007C477.545,1027.082,468.109,1034.57,457.327,1040.91Zm60.822-49.129c-7.25,6.235-14.19,12.831-21.558,19.536a41.293,41.293,0,0,1-2.982-3.1c-6.3-8.2-12.751-16.3-18.751-24.723-2.742-3.845-4.466-8.4-6.851-12.522-2.17-3.746-4.817-7.221-6.89-11.016-5.147-9.427-12-17.873-15.738-28.124-2.4-6.591-5.269-13.019-8.13-19.431-1.825-4.094-4.028-8.02-6.037-12.033a18.763,18.763,0,0,1-.737-1.982l.818-.714c2.518,1.57,5.116,3.027,7.538,4.733,6.236,4.389,12.4,8.887,18.581,13.347.607.438,1.192.908,1.776,1.376,7.094,5.7,14.057,11.57,21.322,17.037,5.856,4.408,12.136,8.246,18.114,12.5,3.029,2.155,5.808,4.66,8.7,7.01.58.47,1.079,1.173,1.74,1.389,7.17,2.33,23.472,13.869,29.888,16.84C532.819,979.678,525.36,985.581,518.149,991.781Zm65.339-43.76a13.367,13.367,0,0,1,3.095-4.331c5.713-5.5,11.553-10.869,17.327-16.308,2.4-2.255,4.712-4.6,7.122-6.836a20.96,20.96,0,0,1,2.582-1.759c2.944,28.925,4.237,57.588,4.382,86.485-2.087-.026-2.876-1.761-4.007-3.055-7.567-8.663-15.041-17.412-22.774-25.924-4.2-4.627-8.863-8.841-13.376-13.3C579.779,957.782,581.5,952.846,583.487,948.021Zm37.519,117.757c-4.286-4.308-8.185-7.993-11.814-11.927-5.676-6.15-11.051-12.58-16.785-18.673-3.479-3.7-7.395-6.983-11.119-10.448q-8.693-8.091-17.4-16.163c-1.57-1.447-2.2-2.766-1.321-5.08,2.8-7.407,5.242-14.953,7.88-22.423.775-2.191,1.75-4.309,2.921-7.16,4.32,3.626,8.31,6.5,11.733,9.943,9.079,9.123,17.65,18.764,26.928,27.672,7.309,7.019,8.6,15.722,9.055,24.987.238,4.915.755,9.821.9,14.737C622.117,1055.75,623.26,1060.339,621.006,1065.778Zm719.642-142.7c7.837-3.4,15.687-6.789,23.626-9.938,4.308-1.709,8.832-2.867,13.222-4.376q5.5-1.893,10.921-4.036c10.184-4.045,19.6-9.639,29.357-14.56,1.17-.59,17.641-6.343,22.231-7.031,1.843-.278,3.5-1.659,5.3-2.394,3.038-1.237,6.11-2.391,9.2-3.494.461-.165,1.09.137,2.449.349-2.283,2.864-4.131,5.35-6.151,7.686q-7.645,8.838-15.426,17.559c-3.479,3.906-7.042,7.738-10.585,11.588-8.833,9.6-17.618,19.242-26.546,28.748-2.867,3.052-6.241,5.623-9.177,8.617-3.568,3.636-6.984,7.43-10.33,11.272-1.727,1.982-3.488,2.318-5.982,1.546-4.718-1.462-9.526-2.652-14.333-3.8-3.877-.929-6.943-2.382-7.747-6.926-.281-1.585-1.952-2.927-2.992-4.378-4.538-6.327-9.1-12.638-13.593-18.995a19.885,19.885,0,0,1-1.439-3.316C1335.416,925.764,1337.956,924.25,1340.648,923.081Zm39.564,53.76c9.073,2.588,18.139,5.209,27.25,7.659,2.667.716,4.195,2.081,4.529,5.443a64.943,64.943,0,0,1-5.979,3.275c-6.471,2.77-12.943,5.571-19.553,7.979-3.638,1.325-7.608,1.709-11.333,2.834-4.829,1.459-9.564,3.234-14.647,4.978a10.4,10.4,0,0,1-.2-2.4q2.184-15.132,4.472-30.251a36.855,36.855,0,0,1,1.013-3.76C1371.034,974.148,1375.613,975.529,1380.212,976.841ZM1158.1,796.932l6.839,16.776c-3.342,2.121-6.444,4.152-9.6,6.087q-16.091,9.858-32.215,19.658c-1.022.623-2.054,1.236-3.1,1.816q-15.713,8.7-31.436,17.391c-7.335,4.041-14.742,7.953-22.027,12.079-6.384,3.618-12.479,7.778-19,11.118-11.182,5.73-22.593,11.013-33.92,16.459a12.377,12.377,0,0,1-2.283.485c2.448-13.46,9.618-24.348,15.952-35.966,2.5.546,4.032-1.239,6.032-2.469,6.549-4.027,12.423-9.467,20.495-10.637a12.283,12.283,0,0,0,3.723-1.529q30.058-15.741,60.1-31.519c4.1-2.149,8.06-4.729,12.387-6.249,9.1-3.2,17.144-8.418,25.724-12.6C1156.291,797.579,1156.859,797.409,1158.1,796.932ZM1048.5,816.97c.949-2.008,1.563-4.178,2.313-6.279a5.21,5.21,0,0,1,3.922-3.3q20.307-5.711,40.588-11.519c11.519-3.319,23.031-6.668,34.5-10.153,5.576-1.7,11.042-3.748,16.57-5.6,1.117-.374,2.287-.584,3.589-.908,1.208,3.11,2.225,5.73,3.479,8.959-2.135,1.108-4.276,2.371-6.537,3.366-13.7,6.035-27.5,11.855-41.116,18.062-7.489,3.413-14.69,7.457-22.033,11.194-3.731,1.9-7.512,3.7-11.225,5.635-8.885,4.62-17.688,9.4-26.643,13.88-2.954,1.477-6.273,2.225-10.164,3.56.76-1.775,1.163-2.826,1.65-3.836C1041.1,832.342,1044.859,824.684,1048.5,816.97Zm-88.864,60.611c2.884-3.827,5.84-7.6,8.769-11.4a19.932,19.932,0,0,0,2.2-2.838c4.413-8.65,12.4-13.6,19.732-19.239,2.017-1.552,3.977-3.183,6.032-4.683q18.126-13.232,36.3-26.4a20.832,20.832,0,0,1,3.262-1.555c.078.9.285,1.4.127,1.718-3.462,6.938-6.969,13.855-10.457,20.782-3.087,6.133-6.281,12.216-9.213,18.422-4.663,9.868-9.1,19.845-13.745,29.722a52.034,52.034,0,0,1-4.1,6.922c-5,7.393-8.9,15.537-15.2,22.047-1.326,1.369-2.1,3.253-3.253,4.81-4.971,6.716-9.883,13.481-15.023,20.069-5.411,6.935-11.173,13.6-16.572,20.542-7.169,9.218-14.132,18.595-21.192,27.9-.615.812-1.3,1.573-2.255,2.724-10.013-8.58-20.521-16.211-30.343-25.281,3.253-4.143,6.151-7.924,9.149-11.624,2.631-3.247,5.536-6.282,8.036-9.624,7.808-10.437,15.419-21.023,23.237-31.452,2.867-3.827,6.215-7.289,9.133-11.081C949.477,891.3,954.5,884.4,959.639,877.581Zm-113.785,61.3c6.761-2.432,12.929-6,19.073-9.618,7.707-4.544,14.939-9.787,22.971-13.916,8.46-4.349,16.129-10.266,24.024-15.674,4.56-3.122,8.765-6.761,13.335-9.865,7.906-5.368,15.966-10.506,23.974-15.722a16.533,16.533,0,0,1,2-.958l.752.522a18.184,18.184,0,0,1-1.59,2.985c-7.353,9.241-14.829,18.384-22.121,27.673-5.908,7.524-11.559,15.252-17.424,22.811-4.312,5.557-8.87,10.926-13.161,16.5-3.285,4.268-6.249,8.781-9.5,13.076-2.316,3.056-2.9,3.249-6.487,1.961-10.53-3.789-21-7.749-31.529-11.542-2.806-1.012-5.744-1.657-8.614-2.49-.827-.241-1.634-.546-2.8-.941A14.549,14.549,0,0,1,845.854,938.885Zm-219.528,10.7c-.035-7.948.163-15.9.377-23.846.064-2.385.575-4.755.736-7.141a12.427,12.427,0,0,0-.253-3.859c-1.457-5.689-.876-6.961,3.786-10.578,4.472-3.47,8.681-7.279,13.562-11.411,8.751,6.262,17.685,12.5,26.432,18.995a82.514,82.514,0,0,1,9.656,8.644c1.277,1.3,1.8,3.343,2.733,5.176-9.3,6.474-18.23,12.932-27.409,19.019s-18.609,11.808-28.457,18.021C626.251,957.833,626.346,953.673,626.326,949.586Zm69.6,23.612c-2.17,2.051-4.715,3.7-6.882,5.759-6.42,6.082-12.815,12.192-19.056,18.456-8.35,8.382-16.536,16.926-24.813,25.379-2.724,2.782-5.455,5.56-8.289,8.228-1.616,1.52-3.446,2.812-5.971,4.846-.52-3.711-1.1-6.343-1.222-9-.433-9.581-.658-19.173-1.082-28.755-.13-2.959-.792-5.893-.949-8.852-.189-3.575.043-7.175-.18-10.747-.156-2.48.909-3.716,2.953-4.941,11.058-6.624,22.1-13.28,32.963-20.223,4.39-2.806,8.29-6.38,12.432-9.58,3.423-2.644,6.874-5.255,10.785-8.243.674,1.871,1.19,3.171,1.614,4.5,2.043,6.406,4.134,12.8,6.061,19.24,1.073,3.583,1.973,7.228,2.689,10.9A3.885,3.885,0,0,1,695.926,973.2Zm243.234,48.529a89.649,89.649,0,0,1-10.357-2.977c-10.337-3.552-20.576-7.395-30.962-10.791-7.4-2.419-14.977-4.292-22.468-6.43a16.072,16.072,0,0,1-2.94-1.059c-10.182-5.243-21.1-8.5-31.939-12.01-11.673-3.775-23.27-7.788-34.913-11.664a82.5,82.5,0,0,0-10.686-3.287c-9.357-1.747-18.053-5.4-26.824-8.835a29.888,29.888,0,0,1-6.92-4.036c-5.846-4.4-11.518-9.027-17.315-13.492a132.979,132.979,0,0,0-18.667-11.592c-6.552-3.506-12.5-8.135-18.72-12.271-6.093-4.057-12.16-8.156-18.291-12.156-3.505-2.284-7.135-4.376-10.668-6.62-1.355-.861-2.6-1.9-3.894-2.854l.481-.726q9.8,3.193,19.6,6.383c8.386,2.73,16.79,5.406,25.155,8.2,8.652,2.889,17.235,5.982,25.9,8.826,13.918,4.566,27.906,8.917,41.815,13.512,11.766,3.888,23.464,7.982,35.186,12,10.193,3.495,20.4,6.963,30.558,10.541,3.665,1.289,7.21,2.919,10.845,4.3,3.485,1.323,7.025,2.506,10.529,3.784q11.383,4.15,22.747,8.351a10.627,10.627,0,0,1,2.782,1.456c7.233,5.58,14.626,10.974,21.589,16.878,9.941,8.428,19.564,17.234,29.307,25.895.734.653,1.349,1.439,2.71,2.91C947.592,1023.13,943.335,1022.622,939.16,1021.727Zm40.713-24.239c-1.608,7.088-3.92,14.016-5.895,21.023-.592,2.106-1.082,4.239-1.689,6.632-14.486-9.331-27.062-20.295-39.56-31.991a33.639,33.639,0,0,1,2.461-3.749c3.229-3.739,6.645-7.315,9.827-11.093,7.221-8.573,14.357-17.219,21.5-25.857,3.146-3.806,6.375-7.556,9.3-11.527,4.787-6.493,9.348-13.153,14.037-19.719a19.538,19.538,0,0,1,2.158-2.113,17.883,17.883,0,0,1-.012,2.333c-1.755,10.584-3.545,21.161-5.292,31.747-.365,2.208-.555,4.443-.874,6.661-.83,5.77-1.64,11.541-2.542,17.3C982.229,983.93,981.394,990.788,979.873,997.488Zm5.167,26.25c.411-3.24.784-6.482,1.239-9.716.687-4.884,1.257-9.795,2.182-14.635,1.9-9.976,3.987-19.918,6.038-29.865q4.447-21.564,8.96-43.114c.83-3.96,1.6-7.948,2.773-11.814a6.876,6.876,0,0,1,2.969-3.577c7.155-4.082,14.374-8.058,21.677-11.869,10.735-5.6,21.418-11.33,32.382-16.448a289.122,289.122,0,0,0,32.7-17.65c7.979-5.058,15.949-10.128,23.984-15.094,1.418-.876,2.66-2.646,4.8-1.688a.9.9,0,0,0,.812-.229c4.843-5.715,12.278-7.241,18.171-11.254,5.451-3.711,10.935-7.372,16.419-11.032,2.835-1.892,5.7-3.737,8.818-5.776.981,1.762,1.689,3.033,2.518,4.52-1.721,1.814-3.333,3.56-4.993,5.255-7.34,7.494-14.93,14.757-21.982,22.51-8.972,9.862-17.481,20.144-26.252,30.19-5.708,6.542-11.556,12.963-17.29,19.483-6.732,7.651-13.585,15.207-20.072,23.064a344.352,344.352,0,0,1-29.107,31.1c-5.764,5.446-11.6,10.823-17.241,16.393-8.1,7.99-16.242,15.946-24.01,24.251-7.859,8.4-15.281,17.211-22.907,25.829a19.676,19.676,0,0,1-1.6,1.463Zm194.8-164.221c-1.973,3.168-3.807,6.432-5.924,9.5-3.651,5.292-7.721,10.306-11.176,15.717q-13.772,21.573-28.3,42.639c-8.411,12.2-17.693,23.74-26.1,35.916-8.919,12.92-17.324,26.2-26.044,39.254-2.4,3.589-5.08,6.99-7.709,10.417q-6.006,7.826-12.126,15.564c-4.913,6.223-9.928,12.366-14.8,18.619-6.236,8-12.377,16.071-18.7,24.288L987.6,1038.459c1.84-2.034,3.305-3.656,4.775-5.275,6.938-7.643,13.738-15.416,20.858-22.887,6.282-6.592,12.926-12.839,19.394-19.256.8-.795,1.5-1.7,2.484-2.824-.909-.093,23.864-24.1,23.167-22.5a4.925,4.925,0,0,0,2.477-1.12c12.526-13.307,25-26.665,37.58-39.918,1.842-1.941,11.928-15.207,13.007-16.643,9.262-12.325,18.2-24.9,29.246-35.772,2.663-2.618,4.933-5.664,7.742-8.1,9.871-8.565,17.582-19.153,26.826-28.3a14.011,14.011,0,0,1,1.427-1.033c3.125,5.451,6.209,10.826,8.954,15.613C1183.419,853.817,1181.623,856.662,1179.844,859.517Zm54.257,79.867c-3.406,8.612-6.795,17.232-10.244,25.828-2.673,6.662-5.351,13.323-8.17,19.924-2.176,5.1-4.668,10.054-6.836,15.151-1.462,3.433-2.644,6.987-3.883,10.51-2.98,8.472-5.859,16.981-8.895,25.432-2.071,5.77-3.7,11.828-6.664,17.116-4.335,7.732-7.863,16.14-15.734,21.5-4.8,3.267-8.927,7.509-13.509,11.118-4.189,3.3-8.585,6.336-12.888,9.487l-1.064-.63c.926-3.584,1.758-7.2,2.8-10.75,6.76-23.145,13.387-46.33,20.432-69.387,3.191-10.437,7.283-20.6,10.874-30.914a47.363,47.363,0,0,0,1.866-7.352c.648-3.7,1.151-7.4,3.565-10.51a7.229,7.229,0,0,0,1.143-2.429c3.908-13.747,9.915-26.661,15.661-39.685,3.137-7.112,6.087-14.307,9.218-21.694,2.295.839,3.313,3.12,4.532,5.011,5.921,9.183,11.638,18.5,17.586,27.663A4.473,4.473,0,0,1,1234.1,939.384Zm41.4-5.68c-6.589-2.46-13.179-4.921-19.718-7.512-4.289-1.7-8.528-3.537-12.716-5.475a7.319,7.319,0,0,1-2.985-2.518c-6.033-9.462-12.532-18.619-17.554-28.732-3.319-6.685-7.634-12.867-11.219-19.43-4.447-8.147-8.579-16.463-12.882-24.689a420.364,420.364,0,0,0-27.026-43.971c-2.033-2.945-3.589-6.22-5.335-9.36-.81-1.456-1.122-3.449-2.338-5.844,4.866,3.854,13.575,9.522,18.54,13.3a97.865,97.865,0,0,0,9.629,6.6,57.907,57.907,0,0,1,13.5,10.193c1.173,1.259,3.275,1.724,4.273,3.06,2.757,3.7,5.237,7.607,7.678,11.525,4.428,7.1,8.759,14.26,13.108,21.409,1.781,2.93,3.5,5.9,5.252,8.844,1.6,2.684,3.072,5.454,4.83,8.028,4.4,6.445,7.884,13.381,11.566,20.24,4.782,8.91,10.395,17.371,15.583,26.066,3.221,5.4,6.326,10.863,9.456,16.314a11.541,11.541,0,0,1,.642,1.984A7.688,7.688,0,0,1,1275.5,933.7Zm22.056,7.18a10.829,10.829,0,0,1-5.957-4.437c-4.144-6.363-8.907-12.25-12.348-19.161-3.922-7.877-9.453-14.939-13.573-22.73-8.89-16.81-19.542-32.569-28.733-49.19-1.95-3.523-3.729-7.141-5.588-10.717q.323-.414.642-.829c5.693,3.767,11.408,7.5,17.075,11.307,10.674,7.166,21.04,14.85,32.1,21.351,5.023,2.951,8.477,6.455,10.578,11.527,4.041,9.757,10.24,18.23,15.778,27.1,3.484,5.579,7.355,10.941,10.486,16.707,5.606,10.326,12.415,19.878,18.5,29.89.378.623.636,1.317,1.395,2.91-2.094-.549-3.456-.809-4.752-1.262C1321.29,949.2,1309.454,944.946,1297.553,940.884Zm41.3,117.928c-1.579,9.363-1.64,18.8-2.177,28.213-.357,6.279-.647,12.561-1,18.84a20.5,20.5,0,0,1-.69,2.721c-2.571-2.538-4.611-4.474-6.565-6.494-7.393-7.642-14.823-15.25-22.108-23-4.715-5.013-9.244-10.205-13.776-15.387-2.763-3.16-5.416-6.421-8.037-9.7a57.182,57.182,0,0,1-3.607-5.13,13.822,13.822,0,0,0-5.621-5.562c-2.159-1.064-3.774-3.236-5.794-5.068a177.676,177.676,0,0,1,15.255-24.236c5.547-7.459,8.567-16.37,14.353-24.2,3.488,4.007,6.911,7.807,9.041,12.362,3.452,7.379,8.678,13.608,12.625,20.647,1.094,1.95,2.62,3.693,3.5,5.724,2.21,5.1,6.343,8.705,9.65,12.937C1340.087,1049.389,1340.447,1049.351,1338.852,1058.812Zm-7.057-33.4c-4.372-7.317-8.286-14.905-12.578-22.271a46.142,46.142,0,0,0-4.958-6.34c-3.292-3.87-6.651-7.682-10-11.505-1.447-1.653-1.059-3.391-.083-4.987,3.9-6.374,7.8-12.752,11.861-19.019,2.278-3.513,4.134-3.807,7.968-1.82a103.763,103.763,0,0,0,24.879,8.754c.583.134,1.189.165,1.773.3,5.368,1.2,5.576,1.363,4.746,6.815-1.186,7.8-1.595,15.885-4.045,23.282-4.233,12.78-5.518,26.249-10.46,39.859C1337.561,1033.727,1334.384,1029.745,1331.795,1025.411Zm94.864,9.661c-1.793,1.263-3.761,2.8-5.873,4.114-10.176,6.305-20.313,12.7-31.094,17.939-7.927,3.848-16.057,7.271-24.039,11.01-3.105,1.456-6.05,3.256-9.07,4.9-1.009.548-2.023,1.083-3.552,1.9,0-2.606-.352-4.7.058-6.629,2.539-11.951,2.374-24.137,3.391-36.219a90.905,90.905,0,0,1,1.354-10.233,4.434,4.434,0,0,1,2.3-2.93c6.066-2.087,12.156-4.181,18.372-5.731,9.981-2.489,18.891-7.405,28.121-11.626,2.411-1.1,4.971-1.877,8.182-3.069C1418.855,1010.985,1422.665,1022.745,1426.658,1035.072Zm-40.312-66.9a18.007,18.007,0,0,1,2.1-3.473c6.188-6.291,12.456-12.5,18.708-18.731a34.331,34.331,0,0,0,5.736-6.729,22.608,22.608,0,0,1,7.9-7.8,25.788,25.788,0,0,0,6.885-6.233c9.877-11.623,19.561-23.406,30.722-33.875,2.264-2.124,3.9-4.907,5.933-7.292,2.187-2.564,2.8-2.727,5.774-1.41,5.452,2.416,10.857,4.938,16.727,7.62-10.578,32.1-20.919,63.727-28.562,96.849C1433.948,981.42,1410.088,975.864,1386.347,968.169Zm121.468,41.74c-4.564-4.286-10.109-7.535-14.621-11.869-4.652-4.465-10.152-6-16.163-6.809-2.782-.374-5.541-.9-8-1.312,1.259-3.595,2.553-6.834,3.529-10.167,3.157-10.784,6.279-21.581,9.259-32.415,2.266-8.232,4.248-16.541,6.444-24.792q2.831-10.63,5.887-21.2a46.634,46.634,0,0,1,2.125-5.063c3.876.745,6.743,2.994,9.783,4.747,4.8,2.765,9.383,5.9,14.109,8.8,5.292,3.243,7.331,7.694,6.4,13.968a85.825,85.825,0,0,0-.032,22.758c.607,5.168.212,10.454.273,15.688.066,5.525-.079,11.064.264,16.575.6,9.569,1.294,19.143,2.339,28.672.78,7.126,2.19,14.182,3.281,21.274.293,1.9.447,3.825.751,6.478C1524.435,1026.29,1516.317,1017.9,1507.814,1009.909Z" transform="translate(19.237 -770.646)" fill="#9d9d72"/>
</svg>
