<svg xmlns="http://www.w3.org/2000/svg" xmlns:xlink="http://www.w3.org/1999/xlink" width="759" height="279" viewBox="0 0 759 279">
  <defs>
    <clipPath id="clip-path">
      <rect id="Rectangle_80" data-name="Rectangle 80" width="759" height="279" transform="translate(0 1032)" fill="#fff"/>
    </clipPath>
  </defs>
  <g id="Mask_Group_2" data-name="Mask Group 2" transform="translate(0 -1032)" clip-path="url(#clip-path)">
    <path id="Path_104" data-name="Path 104" d="M-1398.809,1393.641l-69.584,31.487c-.08-1.8,6.347-15.812,6.166-20.967-.061-1.714,60.1-27.887,60.14-29.919l29.022-7.51,49.956-25.464,61.756,27.242,89.574,51.333,19.253,15.765,51.156-38.18,85.071-42.907,57.968-21.453,42.912,30.035,60.98,24.314,76.771,59.375c-.051,3.626,63.169,84.465,64.752,89.358,1.084,3.35-19.425,0-19.425,0s-38.855-63.09-38.851-61.725l-32.148-24.624c8.612,21.288,25.673,59.547,25.673,59.547l12.025,26.8h-10.175l-11.1-26.8-24.975-52.506-5.311-17.66-12.979-9.942-14.755-9.25,9.714,57.667,5.823,23.872c-.859,12.627.342,25.119,1.527,37.24l.031.317c.036.368.1.735.16,1.1l-4.763-.277-15.065-70.373-5.766-54.778-13.96-8.752-7.444-3.9,11.58,111.1,16.481,25.875-29.6-1.72-14.35-22.66-2.166-3.723-13.8,26.222-7.1.379,7.369-25.423,7.88-10.888-7.995-13.741-3.948-6.563-12.5,26.118-8.688,31.454-13.5.722,8.586-30.808,19.895-37.8-7.918-13.162-8.356-13.315-33.517,66.045-8.1,30.608-16.163.864,10.767-37.507,40.463-70.451-8.43-13.431-12.069-27.3-40.969,82.413-22.552,68.025-15.439.825-13.851.741-64.791-62.786-72.191-49.716-45.166-26.327,17.751,24.356,47.061,51.105,44.656,61.848-.047.088c-8.148-.471-17.042-.979-26.426-1.51l-17.914-30.025-8.239,12.736-6.621,15.451c-5.835-.325-11.724-.653-17.621-.979l21.505-45.6-6.127-10.27-23.187-25.108-3.169,4.9-11.2,26.139,16.072,49.606c-6.562-.363-13.1-.723-19.557-1.078l-.662-.294-46.865-46.295-42.979-31.61-1.581,8.944-3.367,21.5,52.108,33.912,15.237,12.3-.7-.038-5.963-.326-4.281-.233-2.355-.129-3.611-.2-5.574-.3-3.768-.2-.5-.028-3.264-.177-3.957-3.268-35.827-25.436-3.735,26.5-11.945,1.064-12.876,1.147,17-56.126,9.1-55.278,6.939-46,1.408-14.782-3.39-1.173-16.592,7.287-19.518,48.249-26.959,72.6-14.932,40.212c-.012-.75-19.3.294-19.3.294l18.619-43.338,23.991-55.838,21.072-54.7-22.962,10.084-18.932,6.9A1.309,1.309,0,0,1-1398.809,1393.641Zm312.5,18.091-26.273,16.276,43.837-8.4,7.321-7.3,18.047-22.654Zm189.14,33.678,9.569,37.264,11.563,14.413c0-.045-.01-.087-.012-.131l-6.308-98.872-28.542-14.958-3.5-2.146Zm-60.79-71.568,23.146,38.947,28.437,46.484.711.887-6.041-31.561-10.627-52.489-37.5-23.017-7.908,2.146Zm-77.917,162.308,29.36-81.134,40.781-75.2-10.1-22.386-10.347,2.809L-999,1366.832c-10.448,25.612-38.492,89.385-38.492,89.385l-26.776,53.775Zm-49-45.153,9.271,8.542,22.32-44.523,42.7-82.225-19.7,10.133-13.91,21.2-24.043,33.35-24.866,24.745-8.9,14.754Zm-41.711-34.154,24.341-3.794,20.422-20.379-49.852,7.169-8.926,5.529Zm-168.4-85.723-15.617-5.406-.581,18.668-.288,12.542,47.978,31.789c-6.748-18.233-13.946-37.918-18.01-49.736Zm65.456,102.352,12.1-25.656-17.817-27.158-13.336-22.491-20.73-12.083,39.36,86.077Zm-37.209,4.745,28.887,23.392-9.588-29.87s-3.433-9.117-8.207-21.914l-56.156-38.537-.3,12.811-4,22.625Z" transform="translate(1383.038 -204.021)" fill="#f2f2ea"/>
  </g>
</svg>
