<svg xmlns="http://www.w3.org/2000/svg" width="642.737" height="180.313" viewBox="0 0 642.737 180.313">
  <path id="Path_105" data-name="Path 105" d="M-884.855,1384.6l59.2,26.786c.068-1.535-5.4-13.452-5.246-17.837.052-1.458-51.13-23.724-51.163-25.453l-24.69-6.389-42.5-21.662-52.537,23.176-76.2,43.67-16.379,13.412-43.52-32.481-72.372-36.5-49.314-18.25-36.506,25.551-51.877,20.684-65.311,50.511c.044,3.085-53.739,71.856-55.086,76.019-.922,2.85,16.526,0,16.526,0s33.055-53.672,33.052-52.511l27.349-20.948c-7.327,18.11-21.841,50.658-21.841,50.658l-10.23,22.8h8.656l9.443-22.8,21.247-44.668,4.518-15.024,11.042-8.458,12.552-7.869-8.264,49.059-4.954,20.308c.731,10.742-.291,21.37-1.3,31.681l-.027.27c-.03.313-.086.625-.136.938l4.052-.235,12.816-59.868,4.906-46.6,11.876-7.445,6.333-3.318-9.852,94.518-14.021,22.013,25.185-1.464,12.208-19.278,1.843-3.167,11.742,22.308,6.037.322-6.269-21.628-6.7-9.263,6.8-11.69,3.359-5.584,10.632,22.219,7.391,26.759,11.482.614-7.3-26.209-16.925-32.154,6.736-11.2,7.109-11.327,28.513,56.186,6.893,26.039,13.75.735-9.16-31.908-34.423-59.935,7.172-11.426,10.267-23.222,34.854,70.111,19.185,57.871,13.134.7,11.784.63,55.119-53.414,61.415-42.3,38.423-22.4-15.1,20.721-40.036,43.476-37.99,52.616.04.075c6.932-.4,14.5-.833,22.481-1.284l15.24-25.543,7.009,10.835,5.633,13.145c4.964-.277,9.974-.555,14.99-.833l-18.3-38.8,5.213-8.737,19.726-21.36,2.7,4.168,9.53,22.237-13.673,42.2c5.583-.309,11.145-.615,16.637-.917l.563-.25,39.869-39.384,36.563-26.891,1.345,7.609,2.864,18.293-44.329,28.849-12.963,10.463.595-.032,5.073-.277,3.642-.2,2-.109,3.072-.168,4.742-.258,3.205-.174.428-.024,2.776-.151,3.366-2.78,30.479-21.639,3.178,22.547,10.161.905,10.954.976-14.459-47.748-7.738-47.027-5.9-39.133-1.2-12.575,2.884-1,14.115,6.2,16.6,41.046,22.934,61.764,12.7,34.209c.01-.638,16.416.25,16.416.25l-15.84-36.869-20.409-47.5-17.927-46.538,19.535,8.579,16.105,5.874A1.114,1.114,0,0,0-884.855,1384.6Zm-265.848,15.39,22.351,13.846-37.293-7.142-6.228-6.214-15.353-19.272Zm-160.906,28.651-8.141,31.7-9.837,12.262c0-.039.008-.074.01-.111l5.366-84.112,24.282-12.725,2.974-1.826Zm51.715-60.885-19.691,33.133-24.192,39.545-.605.754,5.139-26.85,9.04-44.654,31.9-19.581,6.727,1.826Zm66.285,138.079-24.977-69.022-34.693-63.972,8.592-19.044,8.8,2.39,10.9,5.606c8.889,21.789,32.746,76.042,32.746,76.042l22.779,45.748Zm41.689-38.413-7.887,7.267-18.988-37.877-36.329-69.95,16.763,8.62,11.833,18.036,20.454,28.371,21.154,21.051,7.567,12.552Zm35.484-29.056-20.708-3.228-17.373-17.337,42.41,6.1,7.593,4.7Zm143.26-72.927,13.286-4.6.494,15.881.245,10.67-40.816,27.044c5.74-15.511,11.864-32.258,15.322-42.312Zm-55.685,87.074-10.293-21.826,15.158-23.1,11.345-19.134,17.635-10.279L-1028.5,1451.4Zm31.655,4.036-24.575,19.9,8.157-25.411s2.92-7.756,6.982-18.642l47.773-32.784.251,10.9,3.4,19.247Z" transform="translate(1468.394 -1333.069)" fill="#d9d6cb"/>
</svg>
