<svg xmlns="http://www.w3.org/2000/svg" width="981.695" height="207.792">
  <path data-name="Path 177" d="M126.568 162.34c-.488 1.119-.515 1.108-.972 2.239-1.878 4.665-3.711 9.348-5.622 14a4.1 4.1 0 00.263 4.005c2.1 3.447 3.836 7.058 6.331 10.322 3.346 4.379 6.007 9.28 8.962 13.957h-6.378q-4.607-6.945-9.21-13.893c-.92-1.391-1.8-2.806-2.823-4.394a8.289 8.289 0 00-2.12 4.263c-1.35 4.662-2.618 9.348-3.918 14.024h-9.567a90.48 90.48 0 012.961-9.544c2.264-5.271 5.04-10.32 7.357-15.57 1.853-4.2 3.376-8.548 4.984-12.853 1.886-5.05 3.7-10.126 5.555-15.19 2.244-6.141 4.529-12.266 6.711-18.428.675-1.905 1.076-3.909 1.712-6.275-1.839.42-3.5.724-5.113 1.184-2.712.773-5.36 1.8-8.1 2.443-7.132 1.668-14.3 3.173-21.452 4.766-2.376.529-2.454.557-2.506 2.944-.085 3.928-1.162 7.665-1.957 11.465-1.21 5.785-2.3 11.6-3.389 17.406-1.009 5.373-2 10.75-2.906 16.141a49.476 49.476 0 00-.69 6.566 46.624 46.624 0 01-2.834 14.944h-6.376a80.956 80.956 0 003.077-16.646c.077-1.328.844-2.6 1.09-3.935.723-3.913 1.353-7.842 2-11.769.995-6.017 1.97-12.038 2.967-18.056.546-3.3 1.131-6.593 1.673-9.894.093-.567.061-1.154.11-2.222-1.471 1.384-2.63 2.424-3.732 3.521-1.877 1.866-3.761 3.729-5.564 5.666-1.433 1.539-2.671 3.265-4.143 4.763-1.73 1.761-3.661 3.323-5.426 5.052-1.573 1.542-3.028 3.2-4.551 4.8-2.87 3-5.761 5.978-8.623 8.984-1.461 1.534-2.818 3.172-4.33 4.652a176.144 176.144 0 00-13.588 15.2c-1.713 2.119-3.743 3.946-5.04 6.443-.7 1.345-2.127 2.311-3.225 3.448h-10.1c.839-1.116 1.623-2.281 2.527-3.342 4.526-5.319 8.975-10.708 13.666-15.877 3.2-3.528 6.768-6.722 10.144-10.093 1.059-1.057 13.246-12.786 15.628-17.215.178-4.574 1.335-11.785 1.8-16.359.353-3.508.234-7.061.427-10.588.2-3.706.547-7.4.79-11.108q.2-3.043.263-6.093c.113-5.04.22-10.08.276-15.12.044-3.944.009-7.888.009-12.487-2.486 1.632-4.453 2.912-6.409 4.209-3.608 2.4-7.145 4.906-10.837 7.164a7.689 7.689 0 00-3.868 5.618c-1.083 5.806-2.6 11.528-3.782 17.318-1.621 7.971-4 15.727-6.307 23.513a59.549 59.549 0 00-1.868 8 89.658 89.658 0 01-2.845 13.7c-1.476 4.693-2.689 9.476-3.826 14.265-1.127 4.742-3.054 9.2-4.55 13.812-.055.167-.174.315-.217.483q-1.311 5.1-2.611 10.2h-8.5c2.1-5.627 4.129-11.28 6.317-16.872 1.2-3.07 4.7-14.568 5.538-16.757 2.063-5.392 2.934-11.094 3.9-16.756.4-2.338 3.173-9.712 3.221-10.791.05-1.129 3.141-11.8 4.222-16.052 1-3.936 1.842-7.914 2.621-11.9.387-1.981.232-4.089.773-6.014.5-1.781 1.6-3.394 2.124-5.453l-2.76 1.73c-3.579 2.254-7.135 4.545-10.747 6.743-1.271.773-2.711 1.262-4.018 1.982-2.079 1.145-4.119 2.361-6.16 3.573s-4.333 1.024-6.6 2.319c-2.946 1.681-4.576 2.931-6.4 2.931.338-3.332.837-6.657.977-10 3.679-1.5 11.821-4.347 16.065-6.282 2.7-1.23 4.958-3.379 7.536-4.913 4.462-2.653 8.881-5.325 13.872-7.068 3.7-1.293 7.086-3.538 10.544-5.48 3.775-2.121 7.5-4.339 11.192-6.6 1.8-1.1 3.487-2.405 5.231-3.61 1.295-.894 12.86-9.026 16.349-11.446 2.81-1.948 5.808-3.626 9.17-5.7-1.723.512-3.015.92-4.32 1.281-8.163 2.255-16.006 5.511-24.381 7.169-6.73 1.333-13.284 3.563-19.916 5.4-3.556.985-7.107 1.985-10.662 2.969a3.838 3.838 0 01-1.3.242c-5.239-.471-9.793 1.992-14.584 3.409a17.2 17.2 0 01-5.04 1.011c-2.487.007-4.987.993-7.447 1.683-1.2.338-1-5.158-.942-2.243.957-.526 1.692-.993 2.477-1.349a114.217 114.217 0 0120.409-6.61 308.3 308.3 0 0012.828-3.368c4.754-1.367 9.42-3.052 14.2-4.313 4.181-1.1 8.456-1.866 12.709-2.678 7.436-1.42 14.269-4.695 21.454-6.877 2.278-.693 4.556-1.384 6.854-2 4.686-1.265 9.469-2.236 14.038-3.827a4.742 4.742 0 014.841.8 14.711 14.711 0 002.13 1.547c5.873 2.657 11.773 5.255 17.67 7.861.564.249 1.168.406 1.74.639 2.532 1.035 5.082 2.03 7.584 3.133 6.139 2.71 12.241 5.507 18.39 8.2 2.016.881 4.166 1.456 6.19 2.32 2.267.969 4.455 2.121 6.69 3.167q2.161 1.01 4.359 1.939c2.758 1.169 5.531 2.3 8.287 3.47a1.815 1.815 0 002.606-1.023c.571-1.1 1.149-2.2 1.76-3.272q6.872-12.12 13.768-24.228a82.2 82.2 0 013.222-5.167 1.6 1.6 0 011.306-.6 33.519 33.519 0 006.119-2.411 178.127 178.127 0 0118.508-12.413 54.763 54.763 0 005.46-3.761c3.422-2.5 6.762-5.114 10.222-7.561 5.121-3.62 10.331-7.118 15.478-10.7 3.115-2.171 6.072-4.591 9.3-6.579 5.043-3.106 10.264-5.921 15.383-8.906a4.785 4.785 0 014.036-.576c3.046.908 6.117 1.737 9.2 2.508 4.547 1.136 9.136 2.11 13.666 3.308 4.424 1.171 8.782 2.586 13.2 3.8 3.824 1.055 7.679 2 11.526 2.966 5.013 1.265 10.192 1.922 14.864 4.407 1.379.734 3.114.8 4.5 1.518 8.054 4.2 16.389 7.78 23.94 13.029 7.92 5.506 15.734 11.124 23.358 17.024 3.562 2.756 7.04 5.639 10.755 8.173 5.3 3.616 10.9 6.805 16.162 10.468 6.018 4.184 11.793 8.716 17.721 13.03a15.1 15.1 0 004.14 2.3c4.813 1.534 8.8 4.537 12.94 7.2a130.788 130.788 0 0111.356 8.576 4.776 4.776 0 004.87.865c15.937-4.724 31.835-9.59 47.289-15.728a100.712 100.712 0 0122.7-6.209 47.953 47.953 0 007.658-2.106c2.86-.924 5.654-2.046 8.5-3.021 6.8-2.331 13.757-4.28 20.091-8.148.671.593 1.26 1.1 1.835 1.623 3.927 3.57 7.8 7.2 11.792 10.7 4.582 4.021 9.256 7.939 13.906 11.881q4.84 4.1 9.726 8.152c3.6 2.989 7.265 5.9 10.815 8.946 2.809 2.409 5.489 4.971 8.412 7.634a13.662 13.662 0 001.9-1.17c5.215-4.432 11.132-7.828 16.939-11.363 5.369-3.269 10.711-6.539 15.336-10.84 2.654-2.469 5.251-5 7.929-7.443 1.764-1.608 3.738-3 5.424-4.677 6.422-6.408 13.807-11.639 21.065-16.977a153.234 153.234 0 0117.523-10.94 86.254 86.254 0 0012.6-7.731 52.085 52.085 0 017.945-4.735c2.333-1.242 4.768-2.308 7.212-3.318a3.4 3.4 0 012.236-.006c3.4 1.2 6.782 2.466 10.128 3.814a84.274 84.274 0 0112.36 5.988 153.316 153.316 0 0015.074 8.322c6.106 2.818 12.1 5.808 17.932 9.139 1.605.917 3.232 1.8 4.8 2.773 4.433 2.751 8.792 5.627 13.276 8.294 5.238 3.116 10.7 5.864 15.831 9.148 4.076 2.61 8.382 4.947 11.9 8.393a92.766 92.766 0 007.563 7.012 104.805 104.805 0 0018.873 12.166c2.3 1.113 4.5 2.464 6.719 3.741.375.216 33.71 38.306 35.081 40.151 23.354 31.439 47.986 52.171 48.76 52.652 0 2.126-10.835.146-10.835 2.273-5.219-2.381-79.946-91.146-85.08-93.7a34 34 0 01-5.323-3.912c-4.33-3.357-8.583-6.817-13.012-10.038-.789-.574-3.466-3-4.644-3.083.765 2.058 2.162 6.5 2.833 8.084 1.235 2.917 2.608 5.777 3.8 8.71.731 1.794 1.187 3.7 1.856 5.52 1.611 4.389 3.295 8.752 4.9 13.142.421 1.151.647 2.371 1.006 3.547a105.159 105.159 0 006.115 16.636c1.766 3.528 3.466 7.147 4.026 11.152a5.989 5.989 0 00.823 2.225c1.721 2.812 17.57 37.866 18.424 39.786 0 2.3-8.723 1-10.494 1a52.566 52.566 0 00-3.255-12.808c-.713-1.879-1.72-3.651-2.381-5.546-.418-1.2-.246-2.607-.674-3.8-2.838-7.895-5.635-15.808-8.727-23.6-1.339-3.375-2.119-6.886-3.287-10.291-1.319-3.847-2.487-7.749-4.872-11.126a1.979 1.979 0 01-.32-.71 36.817 36.817 0 00-.954-4.588c-1.155-3.319-2.356-6.636-3.789-9.841a130.455 130.455 0 01-6.033-17.8 56.821 56.821 0 00-5.285-12.951 3.472 3.472 0 00-1.024-1.145c-4.568-3.023-9.127-6.06-13.754-8.99-1.613-1.022-3.4-1.763-5.326-2.742-.482 2.678.2 4.876.588 7.094.546 3.128 1.156 6.245 1.636 9.382.668 4.362 1.155 8.751 1.875 13.1.967 5.844 1.614 11.719 2.044 17.622.3 4.135.581 8.273.982 12.4a48.947 48.947 0 00.947 4.938q1.419 6.991 2.851 13.979c.353 1.724.746 3.441 1.063 5.173 1.269 6.934 2.7 13.846 3.7 20.819.6 4.164.37 8.443.814 12.639a15.845 15.845 0 001.8 5.114 27.809 27.809 0 002.578 3.681h-9.562c-3.483-5.947-6.946-11.906-10.456-17.837a223.84 223.84 0 00-5.161-8.346 16.773 16.773 0 00-2.276-2.315c-.539 2.329-.923 4.355-1.482 6.332-1.586 5.6-3.268 11.177-4.861 16.778-.505 1.774-.854 3.591-1.275 5.388h-6.379c.318-1.368.566-2.756.966-4.1q3.671-12.32 7.4-24.621c.481-1.591 1.072-3.151 1.487-4.757a2.47 2.47 0 00-.221-1.747c-3.288-5.222-6.638-10.406-10.161-15.9-.812.974-1.512 1.731-2.117 2.555a56.88 56.88 0 00-6.99 13.592 95.967 95.967 0 01-2.328 5.625 12.666 12.666 0 00-1.239 4.253 20.389 20.389 0 01-1.49 4.77q-3.15 8.868-6.35 17.719a25.5 25.5 0 01-1.281 2.607h-7.973c1.32-2.786 2.645-5.57 3.952-8.363a1.933 1.933 0 00.255-1.018c-.466-2.88 1.31-5.044 2.337-7.443 1.565-3.651 3.124-7.3 4.744-10.93q2.863-6.407 5.835-12.766 2.929-6.232 6.006-12.395c.781-1.575 1.721-3.072 2.756-4.9-4.819-6.579-8.477-14.168-13.87-20.559-3.808 4.716-7.647 9.181-11.156 13.894-3.994 5.363-8.5 10.372-11.433 16.5-2.857 5.961-5.932 11.818-8.9 17.727q-3.429 6.846-6.829 13.714c-1.2 2.432-2.333 4.9-3.573 7.5l11.926 8.066a6.562 6.562 0 01-4.877-.292 2.982 2.982 0 00-2.246-.2 3.692 3.692 0 01-2.308-.114 28.2 28.2 0 01-7.944-4.16c-2.314-1.9-4.993-3.305-7.1-5.515-.814-.854-2.143-1.2-3.207-1.832-3.036-1.8-6.088-3.57-9.076-5.445-3.442-2.159-6.782-4.483-10.24-6.615-4.282-2.641-8.693-5.076-12.944-7.767a49.464 49.464 0 01-5.628-4.42c-3.555-3.053-7.023-6.206-10.577-9.26-.983-.846-2.143-1.488-3.765-2.594a16.757 16.757 0 00.6 2.237q4.546 9.7 9.133 19.38c1.015 2.148 2.12 4.26 3.032 6.451 1.828 4.395 3.635 8.8 5.275 13.27.71 1.933 1.634 3.919 1.137 6.363-1.811.093-3.556.168-5.3.276a2.016 2.016 0 01-2.262-1.749c-.836-2.974-1.65-5.958-2.63-8.886-1.318-3.937-2.618-7.895-4.22-11.719-3.21-7.667-6.6-15.259-9.957-22.863a163.511 163.511 0 00-3.755-7.89 6.413 6.413 0 00-1.775-2.24 112.342 112.342 0 01-14.119-12.01c-2.272-2.337-4.738-4.486-7.124-6.711-.255-.238-15.669-14.1-19.546-18.211-.361-.384-.623-.859-.971-1.257-.328-.372-.709-.7-1.066-1.042l-.512.237a31.85 31.85 0 001.075 3.327c1.89 4.262 3.6 8.6 5.516 12.856 1.421 3.158 3.209 6.249 3.855 9.78.261 1.431 1.276 2.706 1.784 4.111 1.792 4.962 3.592 9.924 5.238 14.936 1.481 4.511 2.8 9.075 4.121 13.637 1.464 5.067 2.861 10.155 4.247 15.244.37 1.361.493 2.792.9 4.141 1.228 4.12 2.612 8.194 3.776 12.332a39.411 39.411 0 01.77 5.189h-6.91c-.374-1.714-.661-3.453-1.137-5.138-1.705-6.032-3.47-12.046-5.222-18.065-.242-.831-.54-1.647-.9-2.729a11.037 11.037 0 00-3.936 4.008 71.669 71.669 0 01-14.9 18.1 32.8 32.8 0 00-3.135 3.819h-8.5a15.055 15.055 0 011.719-2.628c7.373-7.376 14.133-15.3 20.957-23.175 1.735-2 3.311-4.137 4.964-6.207a4.092 4.092 0 00.877-3.709 239.005 239.005 0 00-7.3-24.108 10.43 10.43 0 00-.8-1.411 13.978 13.978 0 00-1.949 1.32q-6.014 5.8-11.964 11.667c-1.823 1.8-3.511 3.731-5.379 5.476-3.654 3.414-6.282 7.622-9.3 11.539a68.494 68.494 0 01-7.74 8.331 8.235 8.235 0 00-2.608 5.274c-.287 2.1-.648 4.2-.765 6.305-.21 3.771-.261 7.55-.379 11.325h-7.441c.107-.335.348-.691.3-1-.664-4.452.662-8.773.881-13.169.285-5.725 1.61-11.357 1.485-17.155a42.26 42.26 0 011.2-8.629 4.988 4.988 0 00-1.34-4.537 51.2 51.2 0 00-11-9.464 10.174 10.174 0 01-1.211-1.029c-5.876-5.478-11.818-10.888-17.594-16.472-3.032-2.932-5.771-6.168-8.9-9.55-.971 2.96-1.811 5.784-2.453 8.67-1.495 6.719-3.07 13.42-4.431 20.166-.714 3.539-1.095 7.149-1.5 10.741a3.58 3.58 0 00.659 2.181c3.861 5.709 7.712 11.429 11.709 17.043a210.455 210.455 0 008.373 10.932c2.567 3.146 5.365 6.1 8.028 9.171a22.021 22.021 0 011.454 2.1h-10.1c-.835-1.131-1.64-2.286-2.51-3.389-2.3-2.912-4.654-5.774-6.923-8.706q-5.031-6.5-9.956-13.078c-1.043-1.4-1.867-2.965-3.027-4.834a24.406 24.406 0 00-.648 2.692c-.7 6.086-2.9 11.8-4.416 17.675-.836 3.24-1.87 6.429-2.815 9.641h-9.035l1.632-7.223c2.411-10.7 4.766-21.415 7.257-32.1 1.085-4.652 2.551-9.215 3.666-13.861 1.961-8.173 3.819-16.372 5.658-24.573a195.664 195.664 0 016.909-22.291c.707-2 1.474-3.983 2.1-6.008.49-1.585.806-3.222 1.353-5.468a27.123 27.123 0 00-3.063 1.748c-2.845 2.22-5.7 4.434-8.426 6.8-3.245 2.815-7.216 4.38-10.8 6.6a32.541 32.541 0 00-3.349 2.549c-2.11 1.723-4.243 3.425-6.259 5.256a6.085 6.085 0 00-1.7 2.552 110.971 110.971 0 00-2.961 10.718c-.88 4.343-2.416 8.479-3.516 12.741-1.122 4.346-1.782 8.809-2.8 13.184-1.264 5.419-2.735 10.788-4.036 16.2-1.589 6.612-3.038 13.257-4.658 19.861-1.094 4.462-2.379 8.878-3.578 13.314h-5.847a21.152 21.152 0 01.36-2.581c1.524-5.806 3.048-11.613 4.65-17.4 2.62-9.461 4.335-19.127 6.6-28.664 2.4-10.138 3.688-20.549 7.224-30.417a11.675 11.675 0 00.24-1.615c-2.633 2.391-4.86 4.435-7.112 6.453-4.462 4-8.956 7.962-13.4 11.98-3.785 3.421-7.615 6.8-11.258 10.371-7.237 7.09-14.337 14.319-21.54 21.444-3.323 3.287-6.754 6.465-10.138 9.688-3.445 3.28-6.843 6.612-10.356 9.817-2.963 2.7-6.058 5.263-9.1 7.874-1.206 1.034-2.437 2.034-3.658 3.05h-13.319c5.923-4.756 11.909-9.436 17.744-14.3 3.327-2.771 6.385-5.864 9.6-8.771 5.437-4.913 10.826-9.885 16.393-14.646a43.633 43.633 0 017.614-5.646c1.129-.6 1.767-2.124 2.391-2.923-2.976.891-6.587 1.8-10.079 3.055-5.068 1.817-10.038 3.905-15.072 5.822-2.391.91-4.84 1.668-7.244 2.541-1.325.481-2.621 1.043-3.918 1.6-7.718 3.3-15.481 6.5-23.131 9.954-4.264 1.923-8.332 4.28-12.5 6.413-5.266 2.695-10.551 5.354-15.82 8.043q-7.663 3.91-15.3 7.863a6.678 6.678 0 00-1.166 1h-20.732c3.132-1.606 6.287-3.172 9.391-4.831 3.506-1.874 6.947-3.868 10.453-5.744 6.16-3.3 12.272-6.689 18.545-9.754 4.117-2.011 8.469-3.545 12.737-5.241 3.118-1.238 6.24-2.478 9.413-3.565 4.931-1.69 9.9-3.286 14.866-4.859 6.226-1.971 12.5-3.8 18.7-5.845 3.6-1.186 7.093-2.7 10.658-4 1.574-.574 3.227-.932 4.809-1.488a62.943 62.943 0 008.656-3.254 82.035 82.035 0 0115.839-6.005 9.2 9.2 0 003.948-2.025c5.154-4.845 10.576-9.407 14.98-15.016 2.4-3.059 5.078-5.9 7.616-8.852.381-.442.684-.951 1.27-1.776a20.61 20.61 0 00-2.96.171 75.047 75.047 0 00-14.774 4.967c-3.924 1.77-8.134 2.9-12.2 4.356-2.913 1.04-5.823 2.093-8.7 3.228-3.525 1.392-6.89 3.194-10.733 3.713-3.406.46-6.8 1.039-10.173 1.692a39.559 39.559 0 00-4.028 1.307c-5.32 1.637-10.67 3.184-15.963 4.9-5.029 1.632-10.02 3.386-14.991 5.19a25.5 25.5 0 00-5.269 2.477 29.774 29.774 0 01-10.663 3.88 18.561 18.561 0 00-8.082 4.239q-13.745 11.092-27.453 22.228a17.44 17.44 0 00-1.921 1.824 75.6 75.6 0 01-12.371 10.383c-3.208 2.3-6.04 5.117-9.04 7.7h-13.819a6.8 6.8 0 011.05-1.124c5.374-3.631 28.536-21.916 31.63-24.544-.169-.875-.109-1.5-.39-1.867-1.933-2.5-3.113-5.509-5.635-7.641a19.41 19.41 0 01-3.5-4.616 147.2 147.2 0 00-11.484-15.236c-2.915-3.524-5.427-7.384-8.057-11.138-2.315-3.3-4.5-6.7-6.823-9.993-2.138-3.03-4.44-5.943-6.569-8.979-2.534-3.611-4.841-7.388-7.466-10.93-3.305-4.46-6.837-8.754-10.262-13.125-1.084-1.384-2.617-5.886-3.03-6.44a141.206 141.206 0 00-2.25-2.915q-2.609-3.314-5.23-6.619a3.8 3.8 0 01-.493-.617c-2.954-6.018-7.562-10.847-11.535-16.136-1.263-1.683-2.207-3.6-3.337-5.39-.842-1.331-1.749-2.621-2.727-4.078-.439.366-.773.524-.922.787-1.95 3.464-3.859 6.952-5.815 10.412-.633 1.119-1.114 2.158-.424 3.473.526 1 .761 2.154 1.235 3.188 3.876 8.45 6.558 17.334 9.541 26.109.455 1.339.968 2.659 1.483 3.977 2.6 6.654 5.577 13.19 7.723 19.988 2.039 6.461 4.624 12.794 5.435 19.646.326 2.751 1.617 5.391 2.481 8.076 1.243 3.864 2.405 7.758 3.771 11.577 2.083 5.82 4.379 11.562 6.451 17.385 1.418 3.989 2.636 8.05 3.891 12.095a208.863 208.863 0 012.431 8.392c.527 1.987 1.939 3.069 3.591 4.021 1.211.7 2.36 1.5 3.537 2.262h-10.1c-1.449-1.385-2.808-2.879-4.36-4.137-6.29-5.1-12.64-10.134-18.965-15.194a1.336 1.336 0 00-1.021-.384l7.337 19.716h-7.433c-1.053-2.807-2.144-5.6-3.145-8.429-.763-2.155-1.369-4.367-2.122-6.527-.638-1.831-1.392-3.622-2.081-5.437-.5-1.32-.945-2.662-1.476-3.971-.792-1.952-1.767-3.839-2.433-5.831-.992-2.967-2.866-5.545-3.357-8.772a16.838 16.838 0 00-2.45-6.126 80.855 80.855 0 01-6.988-14.548c-.96-2.567-2.025-5.1-3.058-7.634a13.361 13.361 0 01-1.3-5.629 10.317 10.317 0 00-.983-3.539c-1.264-3.576-2.609-7.122-3.852-10.7-1.208-3.485-2.254-7.029-3.521-10.492a31.522 31.522 0 00-2.212-4.19c-1.225-2.226-2.542-4.4-3.668-6.678a2.063 2.063 0 00-2.524-1.241c-4.8.605-9.1 2.541-13.46 4.522-5.137 2.335-10.124 5.1-15.668 6.47a10.506 10.506 0 00-1.505.641 8.406 8.406 0 001.521 5.026 97.917 97.917 0 016.816 12.838c1.054 2.593 2.82 4.888 4.111 7.4 2.279 4.426 5.569 8.131 8.412 12.156a47.966 47.966 0 013.251 5.149c2.151 4.059 4.148 8.2 6.266 12.276 1.058 2.036 2.256 4 3.372 6 2.876 5.172 5.965 10.24 8.537 15.559 1.957 4.045 5 7.238 7.425 10.9.048.072.141.114.185.188q3.124 5.311 6.241 10.625h-10.63c-1.577-3.34-2.728-6.9-5.112-9.823a4.752 4.752 0 01-.665-1.143c-3.18-7.485-7.753-14.232-11.41-21.469-1.976-3.911-3.828-7.971-7.234-11.431-.74.742-1.514 1.407-2.156 2.18-3.441 4.143-6.882 8.287-10.261 12.479-3.656 4.534-7.186 9.169-10.884 13.667-1.9 2.313-4.076 4.4-6.079 6.631-2.643 2.948-5.238 5.938-7.853 8.909h-10.63c-.289-4.317-.562-8.637-.877-12.953-.129-1.764-.334-3.523-.537-5.281a2.7 2.7 0 00-1.674-2.467c-1.864-.782-3.663-1.715-5.5-2.563a58.5 58.5 0 01-5.773-2.661 111.532 111.532 0 00-13.4-6.342 41.986 41.986 0 01-5.491-3.177 821.686 821.686 0 01-13.157-8.434m655.4-96.672q-1.957-8.242-3.824-16.508a3.339 3.339 0 00-2.14-2.778 109.893 109.893 0 01-15.147-7.078c-3.323 2-6.405 3.874-9.514 5.708a1.739 1.739 0 00-1.022 2.168 10.516 10.516 0 00.731 2.238c3.007 5.294 5.941 10.637 9.149 15.81 2.18 3.515 4.749 6.791 7.173 10.153q7.975 11.06 15.991 22.09c1.8 2.463 3.729 4.828 5.867 7.584a16.468 16.468 0 00-.735-6.2 64.11 64.11 0 01-2.319-14.08 25.5 25.5 0 00-.592-4.195c-1.167-4.983-2.429-9.941-3.613-14.918zm31.589 46.76c.432 6.59 2.883 12.719 3.845 19.173.754 5.065 1.787 10.092 2.406 15.172a17.92 17.92 0 003.665 9.442c2.224 2.81 3.829 6.1 5.775 9.142q4.715 7.361 9.526 14.659c1.258 1.915 2.6 3.774 4.09 5.924a10.938 10.938 0 00.231-1.746 158.256 158.256 0 00-1.4-19.028c-1.014-6.268-1.415-12.634-2.266-18.933-.673-4.984-1.63-9.93-2.446-14.9-.975-5.935-1.93-11.873-2.9-17.809-1.373-8.374-2.712-16.753-4.153-25.115-.615-3.569-1.469-7.1-2.173-10.652a4.37 4.37 0 00-2.266-3.038c-3.534-2.189-6.935-4.59-10.408-6.879-1.315-.865-2.683-1.65-4.547-2.789a36.048 36.048 0 00-.474 4.208c.085 5.205-.189 10.472.539 15.593a100.257 100.257 0 01.938 12.117 9.046 9.046 0 00.1 1.054c.658 4.802 1.602 9.581 1.918 14.405zm-16.982 1.8a13.168 13.168 0 001.87 3.747c4.018 6.219 8.1 12.4 12.141 18.6a8.888 8.888 0 001.643 2.228c-.149-1.413-.288-2.826-.452-4.236-.846-7.285-1.829-14.557-2.506-21.857-.447-4.812-1.143-9.562-1.971-14.319a142.386 142.386 0 01-2.475-18.115 173.811 173.811 0 00-2.12-17.319 4.575 4.575 0 00-2.558-3.679c-4.314-2.419-8.515-5.038-12.777-7.549a21.239 21.239 0 00-2.277-1 4.221 4.221 0 00-.17 1.266c1.465 5.573 1.712 11.322 2.554 16.984.685 4.611 1.932 9.135 2.867 13.711.384 1.879.568 3.8.907 5.688.745 4.162 1.466 8.33 2.315 12.472.918 4.483 1.891 8.954 3.009 13.38zm-48.5 78.591c1.35-1.03 1.736-2.727 2.473-4.187 1.352-2.674 2.522-5.445 3.964-8.067 1.912-3.478 3.985-6.87 6.04-10.268q5.824-9.632 11.715-19.225c2.408-3.9 4.825-7.807 7.391-11.607 1.676-2.48 3.594-4.8 5.462-7.144 2.15-2.7 4.371-5.339 6.54-8.021a10.358 10.358 0 00.783-1.3c-4.9-8.239-8.783-17.066-16.045-23.771-1.3 2.2-2.519 4.295-3.764 6.37-1.627 2.712-3.317 5.388-4.9 8.125-1.72 2.971-3.358 5.99-5.012 9-.846 1.541-1.553 3.165-2.483 4.651-3.884 6.21-7.15 12.818-12.085 18.355-1.81 2.03-3.177 4.448-4.832 6.623-.959 1.259-2.075 2.4-3.146 3.573-3.862 4.216-6.449 9.268-9.285 14.152-1.59 2.74-3.079 5.538-4.6 8.276 1.966 2.705 18.2 13.501 21.782 14.467zm-37.822-26.162c1.966 1.477 3.793 3.137 5.75 4.627 1.465 1.115 3.038 2.088 4.935 3.377 1.19-1.935 2.168-3.568 3.19-5.173 1.609-2.525 2.985-5.259 4.929-7.5 4.26-4.907 7.51-10.495 11.231-15.763 1.939-2.744 3.964-5.429 5.807-8.236 2.566-3.909 5-7.9 7.485-11.866 2.533-4.043 5.2-8.009 7.544-12.161 2.644-4.692 5-9.544 7.448-14.347 1.027-2.02 1.953-4.092 3.071-6.449-.23-.328-.654-.981-1.125-1.6-2.628-3.447-5.363-6.817-7.866-10.352a66.394 66.394 0 01-3.505-6.214c-.842-1.514-1.687-3.025-2.779-4.98-1.076 2.269-1.9 3.979-2.7 5.7-1.666 3.594-3.286 7.209-4.978 10.791-3.884 8.221-7.709 16.473-11.74 24.621-1.957 3.957-4.3 7.725-6.515 11.555-1.275 2.207-2.771 4.294-3.924 6.56a57.336 57.336 0 01-7.461 10.585c-2.086 2.5-3.742 5.36-5.679 7.993-2.3 3.132-4.719 6.178-7.05 9.289-1.055 1.408-2.023 2.884-3.157 4.51 2.393 1.698 4.783 3.306 7.087 5.035zm-11.638-7.837c.914-1.743 1.645-3.434 2.635-4.956 1.535-2.359 3.234-4.613 4.887-6.894 2.8-3.862 5.63-7.7 8.415-11.567 1.806-2.509 3.566-5.053 5.324-7.6 1-1.447 2.036-2.88 2.912-4.4 3.04-5.283 6.01-10.6 9.02-15.9.654-1.152 1.3-2.319 2.061-3.4 2.128-3 3.311-6.412 4.551-9.831 1.809-4.982 3.826-9.889 5.788-14.814 1.653-4.153 3.432-8.257 5-12.442a37.956 37.956 0 001.388-5.624 3.48 3.48 0 00-.031-2.081c-1.618-3.207-3.359-6.351-5.221-9.819-1.084.926-1.848 1.62-2.655 2.258-2.285 1.806-4.515 3.694-6.905 5.353-2.359 1.638-3.643 3.929-4.847 6.426-1.838 3.81-3.854 7.539-5.916 11.234-2.839 5.086-6.208 9.876-8.28 15.387a24.249 24.249 0 01-2.309 3.846c-2.165 3.54-4.38 7.052-6.477 10.631-2 3.415-4.452 6.713-5.675 10.4-1.589 4.789-5.437 7.7-8.037 11.611-1.562 2.349-3.3 4.582-4.94 6.879-1.894 2.651-3.806 5.292-5.644 7.983-.942 1.378-1.74 2.853-2.866 4.724 5.89 4.439 11.458 8.857 17.82 12.598zm-35.889-28.989c4.278 3.679 8.373 7.571 12.721 11.528a24.338 24.338 0 001.759-1.83c3.719-4.84 7.524-9.62 11.064-14.588 1.618-2.269 2.635-4.958 4.043-7.389 1.28-2.21 2.843-4.26 4.065-6.5 3.037-5.563 7.082-10.546 9.287-16.595 1.418-3.889 3.109-7.682 4.8-11.466 1.077-2.416 2.377-4.732 3.562-7.1a11.066 11.066 0 00.435-1.17l-.483-.421c-1.486.927-3.019 1.786-4.448 2.793-3.68 2.589-7.315 5.244-10.964 7.876-.358.258-.7.536-1.048.812-4.186 3.361-8.294 6.827-12.581 10.053-3.456 2.6-7.161 4.866-10.689 7.374-1.787 1.271-3.427 2.75-5.132 4.136-.342.277-.637.692-1.026.819-4.231 1.375-13.85 8.184-17.636 9.937 3.613 4.591 8.014 8.075 12.269 11.733zm-38.554-25.821a7.886 7.886 0 00-1.826-2.555c-3.371-3.245-6.817-6.413-10.224-9.623-1.414-1.331-2.78-2.712-4.2-4.034a12.358 12.358 0 00-1.523-1.038c-1.737 17.068-2.5 33.981-2.586 51.031 1.232-.015 1.7-1.039 2.364-1.8 4.465-5.112 8.875-10.274 13.438-15.3 2.481-2.73 5.23-5.217 7.893-7.849-1.151-3.07-2.163-5.983-3.337-8.83zm-22.139 69.484c2.529-2.542 4.83-4.716 6.971-7.037 3.349-3.629 6.521-7.423 9.9-11.018 2.053-2.181 4.363-4.12 6.561-6.165q5.129-4.774 10.27-9.537a2.38 2.38 0 00.78-3c-1.654-4.37-3.093-8.823-4.65-13.231-.457-1.293-1.033-2.543-1.723-4.225-2.549 2.139-4.9 3.837-6.923 5.867-5.357 5.383-10.415 11.072-15.889 16.328-4.313 4.142-5.077 9.277-5.343 14.744-.14 2.9-.446 5.795-.533 8.7-.078 2.659-.752 5.367.578 8.576zm-424.633-84.2c-4.624-2.008-9.256-4.006-13.941-5.864-2.542-1.009-5.211-1.692-7.8-2.582q-3.247-1.117-6.444-2.381c-6.009-2.387-11.567-5.688-17.323-8.592-.691-.348-10.409-3.743-13.118-4.149-1.088-.164-2.066-.979-3.128-1.413a133.525 133.525 0 00-5.427-2.062c-.272-.1-.643.081-1.445.206 1.347 1.69 2.437 3.157 3.629 4.535q4.511 5.215 9.1 10.361c2.053 2.305 4.155 4.566 6.246 6.838 5.212 5.663 10.4 11.354 15.664 16.963 1.692 1.8 3.683 3.318 5.415 5.084 2.105 2.146 4.121 4.384 6.1 6.651a2.943 2.943 0 003.53.912c2.784-.863 5.621-1.565 8.457-2.243 2.288-.548 4.1-1.406 4.571-4.087.166-.935 1.152-1.727 1.766-2.583 2.678-3.733 5.368-7.457 8.021-11.208a11.733 11.733 0 00.849-1.957c-1.636-.844-3.135-1.737-4.723-2.427zm-23.343 31.724c-5.354 1.527-10.7 3.074-16.079 4.519a3.207 3.207 0 00-2.672 3.212 38.321 38.321 0 003.528 1.932c3.819 1.634 7.637 3.287 11.538 4.708 2.147.782 4.489 1.008 6.687 1.672 2.85.861 5.644 1.908 8.643 2.937a6.14 6.14 0 00.118-1.415q-1.288-8.929-2.639-17.85a21.754 21.754 0 00-.6-2.219c-3.111.914-5.814 1.729-8.524 2.504zM286.991 15.51l-4.035 9.9c1.972 1.251 3.8 2.45 5.667 3.592q9.495 5.817 19.009 11.6c.6.367 1.212.729 1.83 1.071q9.272 5.136 18.549 10.262c4.328 2.384 8.7 4.693 13 7.128 3.767 2.135 7.363 4.589 11.211 6.56 6.6 3.381 13.331 6.5 20.015 9.712a7.3 7.3 0 001.347.286c-1.444-7.942-5.675-14.367-9.413-21.222-1.475.322-2.379-.731-3.559-1.457-3.865-2.376-7.33-5.586-12.093-6.277a7.248 7.248 0 01-2.2-.9q-17.736-9.288-35.46-18.6a57.113 57.113 0 00-7.309-3.687c-5.37-1.887-10.116-4.967-15.179-7.433-.31-.153-.645-.253-1.38-.535zm64.671 11.824c-.56-1.185-.922-2.465-1.365-3.705a3.074 3.074 0 00-2.314-1.947q-11.982-3.37-23.949-6.8c-6.8-1.958-13.59-3.935-20.358-5.991-3.29-1-6.515-2.211-9.777-3.305-.659-.221-1.35-.345-2.118-.536l-2.053 5.286c1.26.654 2.523 1.4 3.857 1.986 8.084 3.561 16.224 7 24.261 10.658 4.419 2.014 8.668 4.4 13 6.605 2.2 1.121 4.433 2.185 6.623 3.325 5.243 2.726 10.437 5.547 15.721 8.19a51.32 51.32 0 006 2.1c-.448-1.047-.686-1.668-.973-2.264-2.186-4.531-4.404-9.051-6.554-13.602zm52.435 35.764c-1.7-2.258-3.446-4.486-5.175-6.724a11.762 11.762 0 01-1.3-1.675c-2.6-5.1-7.318-8.024-11.643-11.352-1.19-.916-2.346-1.878-3.559-2.763q-10.7-7.808-21.422-15.575a12.287 12.287 0 00-1.925-.917c-.046.529-.168.826-.075 1.014 2.043 4.094 4.112 8.176 6.17 12.262 1.821 3.619 3.706 7.208 5.436 10.87 2.752 5.823 5.37 11.709 8.111 17.538a30.707 30.707 0 002.417 4.084c2.95 4.362 5.25 9.168 8.971 13.009a26.644 26.644 0 011.92 2.838c2.933 3.963 5.832 7.955 8.864 11.842 3.193 4.092 6.593 8.023 9.778 12.121 4.23 5.439 8.338 10.972 12.5 16.461.363.479.766.928 1.331 1.607 5.908-5.063 12.108-9.566 17.9-14.918-1.92-2.445-3.629-4.676-5.4-6.859-1.552-1.916-3.267-3.707-4.741-5.679-4.607-6.159-9.1-12.4-13.711-18.559-1.692-2.258-3.667-4.3-5.389-6.539-3.061-3.99-6.026-8.063-9.057-12.086zm67.14 36.173a67.135 67.135 0 01-11.254-5.675c-4.548-2.681-8.815-5.775-13.554-8.212-4.992-2.566-9.517-6.058-14.176-9.249-2.69-1.842-5.172-3.99-7.868-5.821-4.665-3.168-9.421-6.2-14.146-9.277a9.748 9.748 0 00-1.182-.565l-.444.308a10.728 10.728 0 00.938 1.761c4.339 5.453 8.75 10.848 13.053 16.329 3.486 4.44 6.82 9 10.281 13.46 2.545 3.279 5.234 6.447 7.766 9.736 1.939 2.518 3.687 5.182 5.607 7.715 1.367 1.8 1.713 1.917 3.828 1.157 6.214-2.236 12.391-4.572 18.6-6.81 1.656-.6 3.389-.978 5.083-1.469.488-.142.964-.322 1.652-.556a8.586 8.586 0 00-4.184-2.832zm129.535 6.314c.021-4.69-.1-9.381-.222-14.07-.038-1.407-.339-2.806-.434-4.214a7.333 7.333 0 01.149-2.277c.86-3.357.517-4.107-2.234-6.241-2.639-2.047-5.122-4.295-8-6.733-5.164 3.7-10.435 7.376-15.6 11.208a48.681 48.681 0 00-5.7 5.1 12.229 12.229 0 00-1.613 3.054c5.487 3.82 10.757 7.631 16.173 11.222s10.98 6.967 16.791 10.634a29.253 29.253 0 00.691-7.682zm-41.068 13.933c1.28 1.21 2.782 2.186 4.061 3.4 3.788 3.589 7.561 7.194 11.244 10.89 4.927 4.946 9.758 9.987 14.641 14.975 1.607 1.641 3.219 3.281 4.891 4.855.954.9 2.033 1.659 3.523 2.86.307-2.19.65-3.743.721-5.309.256-5.654.388-11.313.638-16.967.077-1.746.467-3.477.56-5.223.112-2.11-.025-4.234.106-6.341a2.855 2.855 0 00-1.742-2.915c-6.525-3.909-13.042-7.836-19.45-11.933-2.59-1.656-4.892-3.765-7.335-5.653-2.02-1.56-4.056-3.1-6.364-4.864-.4 1.1-.7 1.871-.953 2.655-1.206 3.78-2.439 7.552-3.576 11.353a67.392 67.392 0 00-1.586 6.43 2.292 2.292 0 00.622 1.787zm-143.522 28.636a52.922 52.922 0 006.111-1.757c6.1-2.1 12.141-4.363 18.27-6.368 4.366-1.427 8.837-2.533 13.257-3.794a9.482 9.482 0 001.735-.625c6.008-3.094 12.451-5.018 18.846-7.087 6.888-2.228 13.731-4.6 20.6-6.883a48.679 48.679 0 016.305-1.939c5.521-1.031 10.653-3.189 15.828-5.213a17.632 17.632 0 004.083-2.381c3.449-2.6 6.8-5.327 10.217-7.961a78.479 78.479 0 0111.014-6.84c3.866-2.069 7.379-4.8 11.046-7.241 3.6-2.394 7.175-4.813 10.793-7.172 2.068-1.348 4.21-2.582 6.295-3.906.8-.508 1.534-1.119 2.3-1.684l-.284-.428q-5.783 1.884-11.567 3.766c-4.949 1.611-9.907 3.19-14.843 4.839-5.105 1.7-10.17 3.529-15.284 5.208-8.212 2.694-16.466 5.262-24.673 7.973-6.943 2.294-13.845 4.71-20.762 7.081-6.015 2.062-12.035 4.109-18.031 6.22-2.163.761-4.254 1.722-6.4 2.537-2.057.781-4.145 1.479-6.213 2.233q-6.716 2.449-13.422 4.928a6.275 6.275 0 00-1.641.859c-4.268 3.293-8.63 6.476-12.739 9.959-5.866 4.973-11.544 10.169-17.293 15.28-.433.385-.8.849-1.6 1.717 3.076-.494 5.588-.794 8.052-1.321zm-24.023-14.3c.949 4.182 2.313 8.27 3.478 12.4.349 1.243.638 2.5 1 3.913 8.547-5.506 15.968-11.975 23.343-18.877a19.842 19.842 0 00-1.452-2.212c-1.905-2.206-3.921-4.317-5.8-6.546-4.261-5.058-8.472-10.16-12.686-15.257-1.857-2.245-3.762-4.459-5.489-6.8-2.825-3.831-5.516-7.761-8.283-11.636a11.529 11.529 0 00-1.273-1.247 10.554 10.554 0 00.007 1.377c1.035 6.245 2.092 12.487 3.123 18.733.215 1.3.328 2.622.516 3.93.49 3.4.968 6.81 1.5 10.208.625 4.014 1.118 8.057 2.016 12.014zm-3.049 15.489c-.242-1.911-.463-3.825-.731-5.733-.405-2.882-.742-5.78-1.288-8.636-1.124-5.887-2.353-11.753-3.563-17.622q-2.624-12.724-5.287-25.44c-.49-2.336-.946-4.69-1.636-6.971a4.057 4.057 0 00-1.752-2.11 381.811 381.811 0 00-12.791-7c-6.334-3.3-12.638-6.685-19.107-9.705a170.588 170.588 0 01-19.294-10.415c-4.708-2.985-9.411-5.976-14.152-8.907-.836-.517-1.569-1.561-2.833-1a.532.532 0 01-.479-.135c-2.858-3.372-7.245-4.272-10.722-6.64-3.216-2.19-6.452-4.35-9.688-6.51-1.673-1.116-3.364-2.205-5.2-3.408l-1.486 2.667c1.016 1.071 1.966 2.1 2.946 3.1 4.331 4.422 8.809 8.708 12.971 13.283 5.294 5.819 10.315 11.886 15.49 17.814 3.368 3.86 6.819 7.649 10.2 11.5 3.973 4.515 8.016 8.973 11.844 13.609a203.2 203.2 0 0017.175 18.353c3.4 3.214 6.843 6.386 10.174 9.673 4.777 4.714 9.584 9.409 14.168 14.31 4.637 4.957 9.017 10.155 13.517 15.241a11.6 11.6 0 00.944.863zm-114.946-96.9c1.164 1.869 2.247 3.8 3.5 5.6 2.155 3.123 4.556 6.081 6.594 9.274q8.126 12.729 16.7 25.16c4.963 7.2 10.44 14.008 15.4 21.192 5.263 7.624 10.222 15.457 15.368 23.162 1.415 2.118 3 4.125 4.549 6.147q3.544 4.618 7.155 9.184c2.9 3.672 5.858 7.3 8.735 10.986 3.68 4.72 7.3 9.483 11.032 14.332l24.416-19.456c-1.086-1.2-1.95-2.157-2.817-3.113-4.094-4.51-8.106-9.1-12.307-13.5-3.707-3.89-7.627-7.576-11.444-11.362-.473-.469-.884-1-1.466-1.667.537-.055-14.081-14.222-13.67-13.275a2.906 2.906 0 01-1.461-.661c-7.391-7.852-14.75-15.734-22.175-23.554-1.087-1.145-7.038-8.973-7.675-9.82-5.465-7.272-10.737-14.694-17.257-21.108-1.571-1.545-2.911-3.342-4.569-4.78-5.825-5.054-10.374-11.3-15.829-16.7a8.261 8.261 0 00-.842-.609l-5.283 9.213c1.236 1.988 2.296 3.666 3.346 5.352zm-32.015 47.126c2.01 5.082 4.009 10.168 6.044 15.24 1.578 3.931 3.158 7.861 4.821 11.756 1.284 3.006 2.754 5.933 4.034 8.94.863 2.026 1.56 4.123 2.291 6.2 1.759 5 3.457 10.02 5.248 15.007 1.222 3.4 2.182 6.979 3.932 10.1 2.558 4.562 4.64 9.523 9.284 12.685 2.833 1.928 5.267 4.431 7.971 6.56 2.472 1.947 5.066 3.739 7.6 5.6l.628-.372c-.547-2.115-1.037-4.247-1.65-6.343-3.989-13.657-7.9-27.338-12.056-40.943-1.883-6.159-4.3-12.152-6.416-18.241a27.946 27.946 0 01-1.1-4.338c-.383-2.185-.679-4.369-2.1-6.2a4.266 4.266 0 01-.674-1.433c-2.306-8.112-5.851-15.732-9.241-23.416-1.851-4.2-3.592-8.442-5.439-12.8-1.354.5-1.955 1.841-2.674 2.957-3.493 5.419-6.867 10.915-10.377 16.323a2.64 2.64 0 00-.127 2.715zm-24.427-3.351c3.888-1.451 7.777-2.9 11.635-4.433 2.531-1 5.032-2.087 7.5-3.231a4.32 4.32 0 001.761-1.486c3.56-5.583 7.395-10.987 10.358-16.953 1.958-3.945 4.5-7.592 6.62-11.465 2.624-4.807 5.062-9.714 7.6-14.568a248.033 248.033 0 0115.947-25.946c1.2-1.738 2.118-3.67 3.148-5.523.478-.859.662-2.035 1.379-3.448-2.871 2.274-8.01 5.618-10.94 7.845a57.745 57.745 0 01-5.682 3.9 34.169 34.169 0 00-7.966 6.015c-.692.743-1.932 1.018-2.521 1.805-1.627 2.181-3.09 4.488-4.531 6.8-2.613 4.19-5.168 8.414-7.734 12.632-1.051 1.729-2.065 3.48-3.1 5.219-.943 1.584-1.812 3.218-2.85 4.737a128.993 128.993 0 00-6.819 11.936c-2.822 5.257-6.133 10.25-9.195 15.38-1.9 3.185-3.733 6.41-5.58 9.626a6.811 6.811 0 00-.379 1.171 4.537 4.537 0 001.349-.016zm-13.014 4.236a6.389 6.389 0 003.515-2.618c2.445-3.755 5.256-7.228 7.286-11.306 2.314-4.648 5.578-8.815 8.009-13.412 5.246-9.919 11.531-19.218 16.954-29.025 1.151-2.079 2.2-4.214 3.3-6.323l-.379-.489c-3.359 2.223-6.731 4.426-10.075 6.672-6.3 4.228-12.415 8.763-18.942 12.6a13.813 13.813 0 00-6.242 6.8c-2.384 5.757-6.043 10.757-9.31 15.989-2.056 3.292-4.34 6.456-6.187 9.858-3.308 6.093-7.326 11.729-10.917 17.637-.223.367-.375.777-.823 1.717 1.235-.324 2.039-.477 2.8-.745 7.004-2.455 13.989-4.961 21.011-7.355zm-24.371 69.582c.932 5.525.968 11.091 1.285 16.647.211 3.705.382 7.412.588 11.117a12.1 12.1 0 00.407 1.605c1.517-1.5 2.721-2.64 3.874-3.832 4.362-4.509 8.746-9 13.045-13.569 2.782-2.958 5.454-6.022 8.129-9.079 1.631-1.865 3.2-3.789 4.742-5.725a33.749 33.749 0 002.129-3.027 8.157 8.157 0 013.317-3.282c1.274-.628 2.227-1.91 3.419-2.99a104.847 104.847 0 00-9-14.3c-3.273-4.4-5.055-9.659-8.469-14.277a32.649 32.649 0 00-5.335 7.294c-2.037 4.354-5.12 8.03-7.45 12.183a39.477 39.477 0 00-2.065 3.377c-1.3 3.006-3.743 5.137-5.694 7.634-3.649 4.664-3.861 4.642-2.922 10.224zm4.164-19.708c2.58-4.317 4.889-8.795 7.422-13.141a27.224 27.224 0 012.925-3.741c1.942-2.283 3.925-4.533 5.9-6.789a2.288 2.288 0 00.049-2.943c-2.3-3.761-4.6-7.525-7-11.223-1.344-2.073-2.439-2.246-4.7-1.074a61.229 61.229 0 01-14.68 5.166c-.344.079-.7.1-1.046.175-3.168.709-3.29.8-2.8 4.021.7 4.6.941 9.373 2.387 13.738 2.5 7.541 3.256 15.488 6.172 23.519 1.97-2.802 3.845-5.152 5.373-7.709zm-55.975 5.7c1.058.745 2.219 1.655 3.466 2.427a206.469 206.469 0 0018.345 10.585c4.677 2.271 9.475 4.29 14.185 6.5 1.832.859 3.57 1.922 5.352 2.888.6.323 1.194.639 2.1 1.121a20.688 20.688 0 00-.034-3.911c-1.5-7.052-1.4-14.242-2-21.372a53.638 53.638 0 00-.8-6.038 2.616 2.616 0 00-1.358-1.729c-3.579-1.232-7.173-2.467-10.841-3.382-5.889-1.469-11.147-4.37-16.593-6.86-1.423-.651-2.934-1.108-4.828-1.811zm23.788-39.474a10.627 10.627 0 00-1.241-2.049c-3.651-3.712-7.35-7.377-11.039-11.052a20.257 20.257 0 01-3.385-3.971 13.34 13.34 0 00-4.659-4.6 15.218 15.218 0 01-4.063-3.678c-5.828-6.858-11.542-13.811-18.128-19.989a50.669 50.669 0 01-3.5-4.3c-1.29-1.513-1.655-1.609-3.407-.832-3.217 1.425-6.406 2.914-9.87 4.5 6.242 18.939 12.343 37.6 16.853 57.147 14.351-3.36 28.43-6.639 42.439-11.176zM80.637 141.18c2.693-2.529 5.965-4.446 8.627-7 2.745-2.635 5.99-3.541 9.537-4.017 1.641-.221 3.269-.534 4.718-.774-.743-2.121-1.506-4.033-2.083-6-1.859-6.366-3.699-12.735-5.459-19.135-1.337-4.858-2.507-9.76-3.8-14.629q-1.673-6.271-3.476-12.503a27.521 27.521 0 00-1.254-2.987c-2.287.439-3.979 1.767-5.772 2.8-2.832 1.631-5.537 3.482-8.325 5.191-3.123 1.913-4.325 4.54-3.774 8.242a50.642 50.642 0 01.019 13.428 88.531 88.531 0 00-.158 9.258c-.039 3.26.047 6.529-.156 9.78-.352 5.646-.763 11.3-1.38 16.918-.46 4.2-1.292 8.368-1.936 12.553-.173 1.123-.264 2.257-.443 3.822 5.315-5.281 10.101-10.234 15.115-14.947z" fill="#d9d6cb"/>
</svg>