<svg xmlns="http://www.w3.org/2000/svg" width="18.011" height="18.01" viewBox="0 0 18.011 18.01">
  <g id="Group_48" data-name="Group 48" transform="translate(-0.993 -0.993)">
    <path id="Path_100" data-name="Path 100" d="M10,5.32a4.645,4.645,0,1,0,.01,0Zm0,7.62a3,3,0,1,1,3-3A3,3,0,0,1,10,12.94Z" fill="#fff"/>
    <circle id="Ellipse_4" data-name="Ellipse 4" cx="1.05" cy="1.05" r="1.05" transform="translate(13.78 4.16)" fill="#fff"/>
    <path id="Path_101" data-name="Path 101" d="M17.55,2.49A5.191,5.191,0,0,0,13.74,1H6.26A5,5,0,0,0,1,5.726,4.756,4.756,0,0,0,1,6.26V13.7a5.243,5.243,0,0,0,1.52,3.88A5.283,5.283,0,0,0,6.3,19h7.4a5.339,5.339,0,0,0,3.81-1.42A5.182,5.182,0,0,0,19,13.74V6.26A5.21,5.21,0,0,0,17.55,2.49Zm-.22,11.25a3.53,3.53,0,0,1-1,2.65,3.771,3.771,0,0,1-2.65.94H6.3a3.771,3.771,0,0,1-2.65-.94,3.668,3.668,0,0,1-1-2.69V6.26a3.642,3.642,0,0,1,1-2.65A3.722,3.722,0,0,1,6.3,2.67h7.47a3.632,3.632,0,0,1,2.65,1,3.718,3.718,0,0,1,1,2.61v7.48Z" fill="#fff"/>
  </g>
</svg>
