<svg xmlns="http://www.w3.org/2000/svg" width="21.177" height="20.242" viewBox="0 0 21.177 20.242">
  <path id="Path_255" data-name="Path 255" d="M268.873,128.819v-7.83c0-4.2-2.239-6.147-5.226-6.147a4.5,4.5,0,0,0-4.091,2.256v-1.936h-4.54c.06,1.282,0,13.657,0,13.657h4.54v-7.627a3.1,3.1,0,0,1,.149-1.106,2.484,2.484,0,0,1,2.329-1.66c1.643,0,2.3,1.252,2.3,3.088v7.307ZM250.234,113.3a2.529,2.529,0,1,0-.028,0Zm2.27,15.521V115.162h-4.538v13.657Z" transform="translate(-247.696 -108.578)" fill="#4a3c31"/>
</svg>
